<ttFont>
          <CharString index="0">
            316 callgsubr
            -84 -65 60 79 -17 vhcurveto
            81 25 72 45 94 444 callsubr
            return
          </CharString>
          <CharString index="1">
            327 -105 callgsubr
            return
          </CharString>
          <CharString index="2">
            -57 -24 -28 -41 -38 15 -36 12 -23 hvcurveto
            53 hlineto
            -8 23 -6 29 23 vvcurveto
            24 7 13 25 vhcurveto
            return
          </CharString>
          <CharString index="3">
            87 61 46 72 7 9 -1 -1 5 vhcurveto
            -103 callgsubr
            return
          </CharString>
          <CharString index="4">
            9 14 1 2 9 hvcurveto
            -102 callsubr
            return
          </CharString>
          <CharString index="5">
            51 vlineto
            -101 callsubr
            return
          </CharString>
          <CharString index="6">
            -2 -8 -10 0 -5 -97 callgsubr
            return
          </CharString>
          <CharString index="7">
            hlineto
            -105 callsubr
            return
          </CharString>
          <CharString index="8">
            239 callgsubr
            -65 -53 hlineto
            -94 callgsubr
            return
          </CharString>
          <CharString index="9">
            -51 -21 -21 -43 -32 -32 15 0 vhcurveto
            -59 vlineto
            377 callgsubr
            return
          </CharString>
          <CharString index="10">
            -24 -5 -18 -21 -26 -93 callsubr
            return
          </CharString>
          <CharString index="11">
            rmoveto
            -299 hlineto
            115 10 65 59 82 hhcurveto
            86 56 -58 -93 hvcurveto
            31 -218 rmoveto
            -24 -36 -60 -10 -41 hhcurveto
            -110 -74 59 114 -9 hvcurveto
            358 hlineto
            3 15 1 29 10 vvcurveto
            151 -82 82 -121 -130 -93 -97 -165 -155 105 -101 149 43 59 11 19 38 vhcurveto
            endchar
          </CharString>
          <CharString index="12">
            -55 callgsubr
            -56 -48 -108 -18 vhcurveto
            return
          </CharString>
          <CharString index="13">
            vlineto
            -13 30 40 -10 47 hhcurveto
            121 77 76 106 71 -30 49 -45 27 hvcurveto
            return
          </CharString>
          <CharString index="14">
            vvcurveto
            -92 callgsubr
            return
          </CharString>
          <CharString index="15">
            54 vlineto
            -1 -5 -12 -1 -7 hhcurveto
            -105 -49 70 100 return
          </CharString>
          <CharString index="16">
            87 61 46 72 7 9 -1 -1 5 vhcurveto
            return
          </CharString>
          <CharString index="17">
            -183 280 rlineto
            -4 31 55 -5 96 hhcurveto
            return
          </CharString>
          <CharString index="18">
            -57 -94 callsubr
            return
          </CharString>
          <CharString index="19">
            61 -82 callgsubr
            return
          </CharString>
          <CharString index="20">
            rmoveto
            15 42 rlineto
            104 299 13 39 0 vvcurveto
            0 12 -39 102 -298 vhcurveto
            15 -43 rlineto
            82 -242 rmoveto
            67 hlineto
            -233 674 rlineto
            -90 hlineto
            -238 -674 rlineto
            67 hlineto
            65 187 rlineto
            298 hlineto
            endchar
          </CharString>
          <CharString index="21">
            61 -75 callgsubr
          </CharString>
          <CharString index="22">
            150 443 rmoveto
            -93 callgsubr
            -20 3 -21 9 -20 hvcurveto
            return
          </CharString>
          <CharString index="23">
            rlineto
            75 hlineto
            -90 callsubr
            return
          </CharString>
          <CharString index="24">
            vlineto
            -105 callsubr
            return
          </CharString>
          <CharString index="25">
            vlineto
            -98 callsubr
            return
          </CharString>
          <CharString index="26">
            rmoveto
            -63 -85 53 133 117 57 84 96 63 83 -53 -153 -136 -89 -45 -62 hvcurveto
            151 437 rmoveto
            -89 vlineto
            57 -29 -50 40 -79 hhcurveto
            -125 -80 -112 -150 -155 100 -86 111 70 51 37 56 31 hvcurveto
            -66 vlineto
            -124 -71 -48 -95 -46 -55 10 21 -42 vhcurveto
            -60 vlineto
            -20 42 57 -9 49 hhcurveto
            123 99 69 161 hvcurveto
            468 vlineto
            endchar
          </CharString>
          <CharString index="27">
            97 -5 39 -23 -54 vvcurveto
            -65 -53 -33 -77 -62 -75 24 28 -45 vhcurveto
            -63 vlineto
            -26 50 67 -15 367 callsubr
            74 62 88 101 -78 28 -96 5 hvcurveto
            return
          </CharString>
          <CharString index="28">
            54 vlineto
            2 -5 -9 1 -9 hhcurveto
            return
          </CharString>
          <CharString index="29">
            -240 -82 callsubr
            return
          </CharString>
          <CharString index="30">
            hlineto
            -100 callgsubr
            return
          </CharString>
          <CharString index="31">
            82 hlineto
            47 166 rlineto
            58 207 17 63 0 vvcurveto
            0 17 -62 61 -208 vhcurveto
            49 -166 rlineto
            82 hlineto
            160 507 rlineto
            -64 hlineto
            -52 -167 rlineto
            -69 -222 -16 -59 0 vvcurveto
            0 -16 59 -66 222 vhcurveto
            -50 167 rlineto
            -72 hlineto
            -48 -167 rlineto
            -62 -214 -18 -65 0 vvcurveto
            0 -14 66 -64 212 vhcurveto
            -50 168 rlineto
            -67 hlineto
            return
          </CharString>
          <CharString index="32">
            -64 -55 -47 -60 -71 -52 50 74 return
          </CharString>
          <CharString index="33">
            rmoveto
            -147 -73 -54 -106 -101 -75 55 141 vhcurveto
            426 -62 -427 vlineto
            -169 89 -86 149 150 91 87 176 vhcurveto
            419 -62 vlineto
            return
          </CharString>
          <CharString index="34">
            -9 16 -5 20 20 vvcurveto
            41 22 39 54 54 39 -34 -80 -93 -66 -57 -114 vhcurveto
            return
          </CharString>
          <CharString index="35">
            rmoveto
            24 -47 -51 12 -72 hhcurveto
            -187 -150 -136 -206 -221 140 -128 201 64 64 15 28 40 hvcurveto
            68 vlineto
            -30 -38 -61 -22 -66 hhcurveto
            -168 -112 113 177 171 119 112 152 88 34 -16 -26 50 hvcurveto
            return
          </CharString>
          <CharString index="36">
            -135 61 257 -58 vlineto
            375 callsubr
            return
          </CharString>
          <CharString index="37">
            18 24 10 33 44 vvcurveto
            150 return
          </CharString>
          <CharString index="38">
            -27 -19 -21 -26 return
          </CharString>
          <CharString index="39">
            -7 callgsubr
            vhcurveto
            -179 -86 callsubr
          </CharString>
          <CharString index="40">
            -141 -71 callgsubr
            return
          </CharString>
          <CharString index="41">
            21 -21 579 55 197 57 hstem
            100 return
          </CharString>
          <CharString index="42">
            0 29 6 24 50 38 -17 -36 27 vhcurveto
            91 -119 -82 73 rlineto
            28 -32 -39 24 -54 hhcurveto
            -26 -27 -7 0 hvcurveto
            -62 vlineto
            return
          </CharString>
          <CharString index="43">
            -91 callsubr
            -79 callsubr
            return
          </CharString>
          <CharString index="44">
            -87 -52 -88 -111 -69 -61 52 83 return
          </CharString>
          <CharString index="45">
            rmoveto
            -81 -28 -53 -41 -68 hhcurveto
            -10 -13 2 3 -11 hvcurveto
            -60 vlineto
            -3 11 16 -2 11 hhcurveto
            77 76 33 148 55 hvcurveto
            184 494 rlineto
            -68 hlineto
            -62 -170 rlineto
            -80 -221 -7 -23 0 vvcurveto
            0 -9 23 -89 221 vhcurveto
            -69 170 rlineto
            -70 hlineto
            endchar
          </CharString>
          <CharString index="46">
            -102 -60 -71 -90 -65 -46 40 80 vhcurveto
            335 -61 -352 vlineto
            -96 62 -66 99 75 58 29 69 28 vhcurveto
            return
          </CharString>
          <CharString index="47">
            23 callgsubr
            -108 -75 56 102 113 91 54 114 23 21 -2 -3 20 hvcurveto
            return
          </CharString>
          <CharString index="48">
            86 54 40 47 26 hvcurveto
            -179 -86 callsubr
          </CharString>
          <CharString index="49">
            -66 -45 42 65 66 49 43 59 15 14 -1 -5 16 hvcurveto
            54 vlineto
            4 -15 -20 2 -18 hhcurveto
            -84 -78 -58 -105 -96 77 -63 86 48 45 15 40 33 hvcurveto
            -195 -86 callgsubr
          </CharString>
          <CharString index="50">
            rmoveto
            51 callgsubr
            2 callsubr
            return
          </CharString>
          <CharString index="51">
            55 vlineto
            4 -16 -24 3 -22 hhcurveto
            return
          </CharString>
          <CharString index="52">
            -20 27 -30 17 -34 5 rrcurveto
            48 13 41 41 70 vvcurveto
            80 -57 55 -107 -37 -32 -8 -10 -24 vhcurveto
            -59 vlineto
            11 20 37 12 38 hhcurveto
            70 30 -32 -55 -53 -35 -39 -78 hvcurveto
            -33 -57 33 hlineto
            return
          </CharString>
          <CharString index="53">
            52 vlineto
            -65 callgsubr
            return
          </CharString>
          <CharString index="54">
            -71 -3 -31 -76 vhcurveto
            -65 -53 hlineto
            -140 39 117 -127 174 hhcurveto
            return
          </CharString>
          <CharString index="55">
            -120 -55 120 81 callgsubr
            119 55 -120 return
          </CharString>
          <CharString index="56">
            62 285 hlineto
            208 -2 108 0 vhcurveto
            0 65 -109 126 -209 vhcurveto
            171 -283 rlineto
            85 674 -62 -286 hlineto
            -211 2 -104 0 vhcurveto
            0 -62 104 -128 212 vhcurveto
            -172 285 rlineto
            -85 hlineto
            return
          </CharString>
          <CharString index="57">
            -41 -14 -41 -27 -33 vhcurveto
            -51 callgsubr
            return
          </CharString>
          <CharString index="58">
            rmoveto
            54 44 -48 -44 -68 -46 -27 -48 -15 hvcurveto
            -60 12 -42 35 64 vvcurveto
            48 40 43 58 vhcurveto
            return
          </CharString>
          <CharString index="59">
            -313 hlineto
            -59 callgsubr
            return
          </CharString>
          <CharString index="60">
            -128 80 -97 134 -25 callsubr
            vhcurveto
            -92 callsubr
            return
          </CharString>
          <CharString index="61">
            -98 callgsubr
            -123 -93 -83 -122 return
          </CharString>
          <CharString index="62">
            -152 117 callsubr
            return
          </CharString>
          <CharString index="63">
            178 -240 hlineto
            -98 callsubr
            return
          </CharString>
          <CharString index="64">
            rmoveto
            124 -162 rlineto
            78 hlineto
            -139 162 rlineto
            return
          </CharString>
          <CharString index="65">
            -46 callsubr
            -124 return
          </CharString>
          <CharString index="66">
            rmoveto
            119 150 rlineto
            -64 hlineto
            -86 -107 -87 107 rlineto
            -64 hlineto
            119 -150 rlineto
            return
          </CharString>
          <CharString index="67">
            vstem
            -85 callsubr
            return
          </CharString>
          <CharString index="68">
            -118 51 -55 108 110 56 62 110 vhcurveto
            return
          </CharString>
          <CharString index="69">
            57 -19 -56 51 -93 hhcurveto
            -37 -2 callgsubr
            105 63 62 94 hvcurveto
            44 hlineto
            52 41 -35 -43 8 hvcurveto
            -28 vlineto
            57 callsubr
            return
          </CharString>
          <CharString index="70">
            -67 callsubr
            66 return
          </CharString>
          <CharString index="71">
            -60 callsubr
            endchar
          </CharString>
          <CharString index="72">
            247 -236 rlineto
            -42 -37 -39 -16 -41 hhcurveto
            -77 -53 46 106 hvcurveto
            return
          </CharString>
          <CharString index="73">
            -143 vlineto
            -99 callsubr
            return
          </CharString>
          <CharString index="74">
            -99 -66 -51 -72 -77 -38 36 106 vhcurveto
            return
          </CharString>
          <CharString index="75">
            85 17 52 57 69 vvcurveto
            65 -44 53 -93 -33 -32 -7 -13 -26 vhcurveto
            -56 vlineto
            136 callsubr
            return
          </CharString>
          <CharString index="76">
            61 280 hlineto
            114 75 62 77 62 47 -40 -81 vhcurveto
            -335 61 354 vlineto
            94 -62 67 -99 return
          </CharString>
          <CharString index="77">
            -55 214 -34 callsubr
            return
          </CharString>
          <CharString index="78">
            159 callgsubr
            47 hlineto
            -13 callsubr
            return
          </CharString>
          <CharString index="79">
            rmoveto
            -24 18 -19 25 24 19 19 24 25 -19 18 -24 -25 -18 -18 -25 vhcurveto
            24 callsubr
            return
          </CharString>
          <CharString index="80">
            -60 callgsubr
            hvcurveto
            return
          </CharString>
          <CharString index="81">
            -6 callsubr
            55 return
          </CharString>
          <CharString index="82">
            11 10 1 1 6 return
          </CharString>
          <CharString index="83">
            62 -66 callgsubr
          </CharString>
          <CharString index="84">
            -100 callgsubr
            223 -285 97 callsubr
          </CharString>
          <CharString index="85">
            2 callsubr
            -63 hlineto
            -5 callgsubr
            return
          </CharString>
          <CharString index="86">
            62 176 61 return
          </CharString>
          <CharString index="87">
            52 102 7 callgsubr
            return
          </CharString>
          <CharString index="88">
            51 vlineto
            6 callgsubr
            return
          </CharString>
          <CharString index="89">
            87 46 -37 -60 -84 -75 -27 -55 -52 -32 13 17 -35 hvcurveto
            -59 vlineto
            -14 30 43 -11 45 hhcurveto
            121 72 68 94 hvcurveto
            return
          </CharString>
          <CharString index="90">
            -112 -78 -84 -136 -139 -95 103 107 -26 return
          </CharString>
          <CharString index="91">
            -156 -90 -107 -115 -111 72 -76 100 -23 hvcurveto
            -110 -144 -44 callgsubr
            -108 142 rlineto
            return
          </CharString>
          <CharString index="92">
            rmoveto
            54 hlineto
            110 187 rlineto
            -76 hlineto
            return
          </CharString>
          <CharString index="93">
            65 1 45 27 27 40 rrcurveto
            -245 -86 callgsubr
          </CharString>
          <CharString index="94">
            -50 callgsubr
            -20 3 -21 9 -20 hvcurveto
            return
          </CharString>
          <CharString index="95">
            -3 callsubr
            20 -2 -6 17 return
          </CharString>
          <CharString index="96">
            634 rmoveto
            return
          </CharString>
          <CharString index="97">
            -88 callsubr
            hlineto
            endchar
          </CharString>
          <CharString index="98">
            72 -65 70 -99 -90 -66 -72 -71 -59 31 -48 50 -29 vhcurveto
            return
          </CharString>
          <CharString index="99">
            7 -13 -25 9 -32 101 callgsubr
            return
          </CharString>
          <CharString index="100">
            339 rmoveto
            -223 240 223 hlineto
            return
          </CharString>
          <CharString index="101">
            -579 -88 callsubr
            return
          </CharString>
          <CharString index="102">
            -65 hhcurveto
            -26 -22 -6 0 hvcurveto
            -55 vlineto
            0 22 6 24 43 26 -16 -40 26 vhcurveto
            return
          </CharString>
          <CharString index="103">
            74 callsubr
            -106 75 -69 101 -1 hvcurveto
            -146 -148 rlineto
            76 hlineto
            194 197 rlineto
            return
          </CharString>
          <CharString index="104">
            79 58 52 74 22 return
          </CharString>
          <CharString index="105">
            -224 231 rcurveline
            -46 callsubr
            return
          </CharString>
          <CharString index="106">
            146 32 99 59 118 vvcurveto
            return
          </CharString>
          <CharString index="107">
            rlineto
            83 hlineto
            -29 callsubr
            return
          </CharString>
          <CharString index="108">
            -55 178 -78 callsubr
            return
          </CharString>
          <CharString index="109">
            87 -107 rlineto
            -6 callgsubr
            return
          </CharString>
          <CharString index="110">
            22 -50 rlineto
            55 return
          </CharString>
          <CharString index="111">
            rmoveto
            86 80 47 101 hvcurveto
            -62 hlineto
            -53 -36 -43 -68 -67 -36 43 53 vhcurveto
            -62 hlineto
            -103 80 -45 85 vhcurveto
            return
          </CharString>
          <CharString index="112">
            -54 -54 34 64 44 22 41 47 22 hvcurveto
            210 hlineto
            return
          </CharString>
          <CharString index="113">
            -33 -27 -15 -40 -39 vvcurveto
            -74 55 -37 30 -9 vhcurveto
            return
          </CharString>
          <CharString index="114">
            rmoveto
            31 -31 -43 18 -52 -84 callgsubr
            44 -53 -79 -112 -86 -88 -136 -139 -95 103 107 -26 hvcurveto
            334 callsubr
            -813 -55 224 -109 hlineto
            242 callgsubr
            175 133 93 72 49 53 rrcurveto
            return
          </CharString>
          <CharString index="115">
            rmoveto
            100 callgsubr
            -53 -79 -112 -80 -88 -134 333 callsubr
            317 55 -603 -55 224 -109 vlineto
            242 callgsubr
            269 212 rlineto
            44 35 59 64 101 vvcurveto
            107 -71 77 -110 -86 -67 -65 -82 243 callsubr
            endchar
          </CharString>
          <CharString index="116">
            164 callsubr
            18 return
          </CharString>
          <CharString index="117">
            245 callsubr
            82 18 48 54 1 71 rlinecurve
            76 -47 59 -94 vhcurveto
            -88 -6 rlineto
            -50 1 -36 29 52 355 callsubr
            endchar
          </CharString>
          <CharString index="118">
            -51 -39 -25 -57 -63 vvcurveto
            -116 100 -100 150 38 22 0 12 48 vhcurveto
            55 vlineto
            -11 -33 -33 -3 -36 hhcurveto
            -112 -82 68 95 76 50 79 133 49 36 -12 -17 25 hvcurveto
            -137 -61 rlineto
            -34 -15 -17 -19 -29 vvcurveto
            -41 43 -44 25 -18 vhcurveto
            44 20 rlineto
            -23 22 -19 31 22 vvcurveto
            15 8 10 16 7 vhcurveto
            133 58 rlineto
            8 -14 3 -14 -13 vvcurveto
            -33 -7 -21 -7 -19 vhcurveto
            61 hlineto
            6 13 6 30 31 vvcurveto
            69 -61 94 -158 vhcurveto
            return
          </CharString>
          <CharString index="119">
            rmoveto
            -55 -24 -50 -79 -79 -24 50 55 vhcurveto
            77 callgsubr
            return
          </CharString>
          <CharString index="120">
            -83 67 -67 83 82 68 67 83 82 -68 68 -82 -83 -67 -68 -82 vhcurveto
            56 hmoveto
            52 42 42 52 52 42 -42 -52 -52 -42 -42 -52 -52 -42 42 52 vhcurveto
            return
          </CharString>
          <CharString index="121">
            hlineto
            -95 callsubr
            return
          </CharString>
          <CharString index="122">
            vlineto
            66 55 48 69 53 42 -27 -53 26 vhcurveto
            46 39 rlineto
            52 -30 -56 41 -81 78 callsubr
            endchar
          </CharString>
          <CharString index="123">
            -38 -29 -15 -22 -28 vvcurveto
            -39 32 -33 37 -22 vhcurveto
            41 26 rlineto
            -16 19 -22 26 25 vvcurveto
            15 9 14 14 11 vhcurveto
            return
          </CharString>
          <CharString index="124">
            109 74 -38 -91 -77 -57 -41 -80 -46 -37 312 callsubr
            39 -10 47 hhcurveto
            129 69 77 95 53 -26 47 -46 27 hvcurveto
            return
          </CharString>
          <CharString index="125">
            106 callsubr
            34 30 -11 -21 22 vhcurveto
            42 42 rlineto
            27 -31 -44 15 257 callgsubr
            endchar
          </CharString>
          <CharString index="126">
            384 callgsubr
            283 hlineto
            82 51 90 76 15 12 -2 -4 13 vhcurveto
            62 vlineto
            1 -9 -8 1 -8 hhcurveto
            -73 -44 -37 -55 -25 hvcurveto
            endchar
          </CharString>
          <CharString index="127">
            -77 -51 -75 -96 -74 -55 44 65 -13 vhcurveto
            72 22 60 51 64 vvcurveto
            return
          </CharString>
          <CharString index="128">
            hhcurveto
            167 callgsubr
            return
          </CharString>
          <CharString index="129">
            133 callgsubr
            159 callgsubr
            return
          </CharString>
          <CharString index="130">
            vlineto
            -93 41 -55 103 19 31 8 11 17 vhcurveto
            62 vlineto
            -13 -16 -27 -10 -25 hhcurveto
            -57 -24 31 56 hvcurveto
            endchar
          </CharString>
          <CharString index="131">
            184 hmoveto
            -24 19 -19 24 -63 callgsubr
            vhcurveto
            return
          </CharString>
          <CharString index="132">
            62 53 -53 hlineto
            -77 -72 19 70 59 54 48 98 hvcurveto
            55 -315 -55 167 vlineto
            -40 -21 -26 -37 -47 vvcurveto
            -72 50 -36 67 -9 vhcurveto
            -66 -9 -53 -47 -71 vvcurveto
            -82 66 -60 124 -5 vhcurveto
            return
          </CharString>
          <CharString index="133">
            76 callsubr
            -17 callsubr
            hvcurveto
            return
          </CharString>
          <CharString index="134">
            -101 281 callsubr
            vhcurveto
            -1 callsubr
            return
          </CharString>
          <CharString index="135">
            hhcurveto
            -72 -48 -36 -62 -14 hvcurveto
            return
          </CharString>
          <CharString index="136">
            rrcurveto
            1 callgsubr
            hvcurveto
            hintmask 0110111010100000
            374 callsubr
            vhcurveto
            61 callsubr
            hintmask 0110111101000000
            41 callgsubr
          </CharString>
          <CharString index="137">
            rmoveto
            22 -7 32 -11 16 vhcurveto
            -61 hlineto
            17 -28 6 -19 -28 vvcurveto
            -42 -30 -25 -57 -6 vhcurveto
            -49 vlineto
            96 4 47 58 65 vvcurveto
            endchar
          </CharString>
          <CharString index="138">
            165 0 57 256 53 251 57 hstem
            150 62 403 65 vstem
            212 57 rmoveto
            256 184 53 -184 251 66 callsubr
            -308 -90 -53 90 -313 99 callsubr
          </CharString>
          <CharString index="139">
            vlineto
            -51 -12 -15 -40 -32 -29 299 callsubr
            24 -7 30 hhcurveto
            76 32 43 74 hvcurveto
            return
          </CharString>
          <CharString index="140">
            hhcurveto
            43 callgsubr
            return
          </CharString>
          <CharString index="141">
            101 51 52 60 59 35 -40 -89 vhcurveto
            128 callsubr
            return
          </CharString>
          <CharString index="142">
            35 48 -46 47 hhcurveto
            35 34 21 43 20 hvcurveto
            return
          </CharString>
          <CharString index="143">
            171 callgsubr
            -289 -55 260 -8 hlineto
            116 callgsubr
            11 2 hlineto
            2 8 9 1 8 79 callgsubr
            -128 -232 220 callgsubr
            -17 -9 -11 -17 -21 -93 callsubr
            hlineto
            return
          </CharString>
          <CharString index="144">
            81 hlineto
            259 262 rlineto
            -262 -86 callgsubr
          </CharString>
          <CharString index="145">
            -7 61 6 vlineto
            74 64 55 146 175 64 -76 -89 vhcurveto
            -33 104 callsubr
            return
          </CharString>
          <CharString index="146">
            182 callsubr
            60 43 -28 -57 69 vhcurveto
            90 hlineto
            return
          </CharString>
          <CharString index="147">
            -260 vlineto
            63 callsubr
            return
          </CharString>
          <CharString index="148">
            hhcurveto
            -74 -56 43 68 179 callsubr
            hvcurveto
            211 callsubr
            104 return
          </CharString>
          <CharString index="149">
            31 -28 -54 40 -91 hhcurveto
            -103 -80 -74 -110 -111 77 -69 107 79 42 32 45 27 hvcurveto
            -44 37 58 -33 81 hhcurveto
            return
          </CharString>
          <CharString index="150">
            rmoveto
            304 callsubr
            -557 247 callsubr
            -88 -63 -43 -83 return
          </CharString>
          <CharString index="151">
            338 callgsubr
            315 204 rmoveto
            180 55 -647 -57 callgsubr
            53 42 -27 -53 26 vhcurveto
            46 39 rlineto
            52 -30 -56 41 -81 78 callsubr
            endchar
          </CharString>
          <CharString index="152">
            315 callgsubr
            -88 68 -59 102 -16 vhcurveto
            -107 -140 -44 callgsubr
            -110 144 rlineto
            118 27 80 94 118 vvcurveto
            return
          </CharString>
          <CharString index="153">
            215 134 callgsubr
            -215 283 rlineto
            10 218 callgsubr
            99 55 -405 -55 244 -139 vlineto
            406 callgsubr
            hlineto
            endchar
          </CharString>
          <CharString index="154">
            -29 -19 -13 -19 -25 vvcurveto
            -45 51 -44 32 -16 vhcurveto
            43 28 rlineto
            -22 16 -29 32 28 vvcurveto
            17 11 12 17 11 vhcurveto
            return
          </CharString>
          <CharString index="155">
            455 callgsubr
            -91 -88 -121 106 callgsubr
            vhcurveto
            62 55 -51 hlineto
            return
          </CharString>
          <CharString index="156">
            62 callgsubr
            vhcurveto
            return
          </CharString>
          <CharString index="157">
            96 -7 31 -42 -45 vvcurveto
            -58 -40 -35 -60 -67 return
          </CharString>
          <CharString index="158">
            hstemhm
            60 62 205 61 return
          </CharString>
          <CharString index="159">
            rmoveto
            30 24 -24 -30 -29 -24 -24 -30 -29 -24 24 29 30 24 24 29 hvcurveto
            -152 vmoveto
            55 44 44 54 55 -44 44 -55 -54 -44 -44 -55 -54 44 -44 54 hvcurveto
            return
          </CharString>
          <CharString index="160">
            -29 21 -21 29 29 23 21 29 28 -23 23 -29 -29 -21 -23 -28 vhcurveto
            return
          </CharString>
          <CharString index="161">
            55 -47 64 callgsubr
            return
          </CharString>
          <CharString index="162">
            hstemhm
            50 119 callsubr
            return
          </CharString>
          <CharString index="163">
            -52 -23 -40 -42 -72 vvcurveto
            -110 98 -57 120 63 66 13 19 38 vhcurveto
            57 vlineto
            -21 -38 -68 -16 -60 hhcurveto
            -89 -65 35 82 74 62 39 82 hvcurveto
            177 return
          </CharString>
          <CharString index="164">
            185 134 callgsubr
            return
          </CharString>
          <CharString index="165">
            -78 callgsubr
            endchar
          </CharString>
          <CharString index="166">
            -121 -72 -53 38 73 179 callsubr
            vhcurveto
            34 callgsubr
            return
          </CharString>
          <CharString index="167">
            201 181 rlineto
            -71 callsubr
            return
          </CharString>
          <CharString index="168">
            61 hlineto
            8 16 3 21 19 vvcurveto
            62 -45 67 -115 vhcurveto
            return
          </CharString>
          <CharString index="169">
            50 340 -87 callgsubr
            return
          </CharString>
          <CharString index="170">
            -140 -95 -68 27 callsubr
            return
          </CharString>
          <CharString index="171">
            -74 -5 56 -30 -21 241 56 160 58 return
          </CharString>
          <CharString index="172">
            164 -48 callgsubr
            return
          </CharString>
          <CharString index="173">
            130 vlineto
            164 109 -126 -150 -143 -78 -141 -190 hvcurveto
            -197 617 rmoveto
            return
          </CharString>
          <CharString index="174">
            hhcurveto
            187 callgsubr
            hvcurveto
            -26 callgsubr
            return
          </CharString>
          <CharString index="175">
            -313 vlineto
            -59 callgsubr
            return
          </CharString>
          <CharString index="176">
            133 callsubr
            hstemhm
            return
          </CharString>
          <CharString index="177">
            rmoveto
            265 callsubr
            -528 -55 352 173 callgsubr
            endchar
          </CharString>
          <CharString index="178">
            -86 -49 rlineto
            -40 -23 -16 -23 -29 vvcurveto
            -38 33 -40 34 -21 vhcurveto
            44 27 rlineto
            -21 17 -20 25 26 vvcurveto
            12 6 13 14 9 vhcurveto
            204 133 return
          </CharString>
          <CharString index="179">
            -146 90 -116 140 9 14 1 2 9 vhcurveto
            118 callsubr
          </CharString>
          <CharString index="180">
            vstem
            436 -11 callsubr
            -456 -55 456 hlineto
            61 -286 rmoveto
            -68 -37 -77 -72 -95 hhcurveto
            -72 -53 38 73 179 callsubr
            hvcurveto
            241 callsubr
            92 hlineto
            333 270 rlineto
            return
          </CharString>
          <CharString index="181">
            -64 callsubr
            -104 -89 -70 -118 return
          </CharString>
          <CharString index="182">
            rmoveto
            27 21 19 27 26 -21 21 -27 257 callsubr
            hvcurveto
            return
          </CharString>
          <CharString index="183">
            100 callgsubr
            -60 -76 return
          </CharString>
          <CharString index="184">
            rmoveto
            -139 162 rlineto
            227 callgsubr
            return
          </CharString>
          <CharString index="185">
            hhcurveto
            -51 -45 -18 -32 -28 hvcurveto
            return
          </CharString>
          <CharString index="186">
            rlineto
            18 -25 -19 7 -20 hhcurveto
            -57 -28 -74 -62 -1 hvcurveto
            45 -15 rlineto
            44 10 15 34 31 hhcurveto
            12 14 -5 -11 16 hvcurveto
            143 -106 -220 -36 rlineto
            -50 -8 -20 -26 -33 vvcurveto
            -42 27 -41 16 -22 vhcurveto
            46 11 rlineto
            -9 21 -10 25 22 vvcurveto
            24 12 16 31 5 vhcurveto
            return
          </CharString>
          <CharString index="187">
            -72 callsubr
            endchar
          </CharString>
          <CharString index="188">
            rmoveto
            -616 -55 435 -260 hlineto
            -63 callsubr
            75 callgsubr
            -116 87 -67 96 -4 hvcurveto
            -173 -157 rlineto
            90 hlineto
            255 231 rlineto
            return
          </CharString>
          <CharString index="189">
            65 -24 55 -53 28 vhcurveto
            125 vlineto
            endchar
          </CharString>
          <CharString index="190">
            11 callgsubr
            291 callsubr
            hvcurveto
            -173 -86 callsubr
          </CharString>
          <CharString index="191">
            vvcurveto
            94 callsubr
            vhcurveto
            -45 callsubr
            return
          </CharString>
          <CharString index="192">
            60 -39 -51 29 -69 hhcurveto
            -26 -29 -6 0 hvcurveto
            return
          </CharString>
          <CharString index="193">
            rmoveto
            -81 hlineto
            128 -150 rlineto
            55 hlineto
            return
          </CharString>
          <CharString index="194">
            -110 6 -31 23 48 vvcurveto
            return
          </CharString>
          <CharString index="195">
            21 -21 79 54 135 55 18 57 179 54 -52 55 return
          </CharString>
          <CharString index="196">
            -48 -43 -17 -32 -28 hvcurveto
            151 return
          </CharString>
          <CharString index="197">
            329 rmoveto
            -204 92 -133 132 148 81 139 198 208 -95 123 -134 -127 -97 -123 -208 vhcurveto
            63 hmoveto
            184 84 87 77 88 78 -87 -184 -181 -68 -96 -98 -84 -77 96 181 vhcurveto
            endchar
          </CharString>
          <CharString index="198">
            403 107 callgsubr
            184 253 305 callgsubr
            return
          </CharString>
          <CharString index="199">
            rmoveto
            -73 -50 48 77 76 47 57 78 69 49 -40 -30 25 hvcurveto
            -87 -34 -7 -101 -104 hhcurveto
            return
          </CharString>
          <CharString index="200">
            -83 -64 -58 -93 -98 -58 58 84 97 81 38 76 return
          </CharString>
          <CharString index="201">
            -107 75 -69 106 48 43 17 32 28 return
          </CharString>
          <CharString index="202">
            rmoveto
            40 callsubr
            hintmask 1110111110000000
            -89 callgsubr
            return
          </CharString>
          <CharString index="203">
            -260 vlineto
            103 callsubr
          </CharString>
          <CharString index="204">
            62 -82 callgsubr
            hlineto
            endchar
          </CharString>
          <CharString index="205">
            rmoveto
            -15 25 39 -8 28 hhcurveto
            77 70 34 131 hvcurveto
            509 -62 -519 vlineto
            -66 -31 -30 -60 -31 -31 11 16 -24 vhcurveto
            return
          </CharString>
          <CharString index="206">
            197 vlineto
            226 107 166 175 200 -142 133 -196 hvcurveto
            endchar
          </CharString>
          <CharString index="207">
            -160 51 115 -107 179 hhcurveto
            -205 -157 rlineto
            94 hlineto
            return
          </CharString>
          <CharString index="208">
            vstem
            35 223 rmoveto
            377 callgsubr
            176 55 -420 338 callsubr
            418 42 rmoveto
            -402 -344 rlineto
            88 hlineto
            345 291 rlineto
            return
          </CharString>
          <CharString index="209">
            1 -9 -10 0 -9 hhcurveto
            return
          </CharString>
          <CharString index="210">
            -63 callsubr
            75 callgsubr
            -119 92 -68 97 -59 callsubr
          </CharString>
          <CharString index="211">
            -118 -56 callgsubr
            return
          </CharString>
          <CharString index="212">
            319 rmoveto
            161 callsubr
            return
          </CharString>
          <CharString index="213">
            64 55 47 60 return
          </CharString>
          <CharString index="214">
            63 callgsubr
            403 191 rmoveto
            -634 -24 callsubr
          </CharString>
          <CharString index="215">
            -71 callgsubr
            127 callgsubr
            vhcurveto
            return
          </CharString>
          <CharString index="216">
            -41 -16 -17 -22 -29 vvcurveto
            -45 40 -44 21 -19 vhcurveto
            49 15 rlineto
            -19 25 -20 38 24 vvcurveto
            14 7 8 16 7 vhcurveto
            return
          </CharString>
          <CharString index="217">
            115 callgsubr
            49 150 hstem
            45 64 299 63 vstem
            return
          </CharString>
          <CharString index="218">
            328 callsubr
            58 -20 58 hhcurveto
            97 65 64 83 37 -15 32 -26 24 hvcurveto
            return
          </CharString>
          <CharString index="219">
            -55 370 68 callsubr
            return
          </CharString>
          <CharString index="220">
            8 16 22 5 19 79 callgsubr
            return
          </CharString>
          <CharString index="221">
            77 21 177 callsubr
            return
          </CharString>
          <CharString index="222">
            -298 21 -21 579 55 return
          </CharString>
          <CharString index="223">
            rmoveto
            122 callgsubr
            return
          </CharString>
          <CharString index="224">
            62 314 vlineto
            return
          </CharString>
          <CharString index="225">
            -102 callsubr
            hintmask 1101111110000000
            -36 callgsubr
          </CharString>
          <CharString index="226">
            62 238 62 return
          </CharString>
          <CharString index="227">
            -34 66 rlineto
            43 -21 -28 23 -38 hhcurveto
            -38 -37 -25 -28 -21 hvcurveto
            26 -46 rlineto
            19 15 25 19 21 hhcurveto
            22 11 -16 -30 15 hvcurveto
            28 -56 rlineto
            -10 -10 -5 -12 -12 vvcurveto
            -37 63 -37 34 -27 vhcurveto
            43 24 -47 94 return
          </CharString>
          <CharString index="228">
            51 -34 -52 33 -69 hhcurveto
            -128 -90 -110 -157 -135 74 -121 142 76 50 34 48 31 hvcurveto
            return
          </CharString>
          <CharString index="229">
            297 rmoveto
            -110 -101 -65 -108 -78 -54 25 50 56 64 17 76 vhcurveto
            41 55 -41 hlineto
            hintmask 1111101110000000
            -86 -50 22 47 40 35 25 62 28 39 -4 -11 32 hvcurveto
            135 141 vlineto
            129 callgsubr
            return
          </CharString>
          <CharString index="230">
            -59 -8 -46 -48 -71 143 callsubr
            return
          </CharString>
          <CharString index="231">
            rmoveto
            -80 -72 -34 -80 -71 -75 34 80 76 64 41 87 87 60 -38 -79 vhcurveto
            return
          </CharString>
          <CharString index="232">
            rmoveto
            -24 18 -18 24 24 19 18 24 24 -19 19 -24 -24 -18 -19 -24 vhcurveto
            return
          </CharString>
          <CharString index="233">
            87 callsubr
            52 48 17 45 vhcurveto
            return
          </CharString>
          <CharString index="234">
            68 261 61 -49 61 return
          </CharString>
          <CharString index="235">
            -75 61 74 vlineto
            return
          </CharString>
          <CharString index="236">
            634 rmoveto
            141 callgsubr
            return
          </CharString>
          <CharString index="237">
            rmoveto
            -55 348 -133 -219 220 callgsubr
            -260 -305 rlineto
            74 hlineto
            187 219 rlineto
            return
          </CharString>
          <CharString index="238">
            259 50 rmoveto
            -86 -64 80 117 141 70 69 86 58 95 -43 -158 -162 -86 -44 -73 hvcurveto
            return
          </CharString>
          <CharString index="239">
            -299 21 -21 579 55 return
          </CharString>
          <CharString index="240">
            55 -42 52 102 55 return
          </CharString>
          <CharString index="241">
            54 110 55 hstemhm
            return
          </CharString>
          <CharString index="242">
            164 callsubr
            17 -153 101 -63 109 -6 rrcurveto
            return
          </CharString>
          <CharString index="243">
            124 callgsubr
            282 callgsubr
            hvcurveto
            return
          </CharString>
          <CharString index="244">
            177 callgsubr
            41 150 hstem
            50 64 463 64 vstem
            return
          </CharString>
          <CharString index="245">
            -21 83 52 290 134 callsubr
            return
          </CharString>
          <CharString index="246">
            22 20 -5 -6 14 vhcurveto
            return
          </CharString>
          <CharString index="247">
            93 callgsubr
            vhcurveto
            334 callsubr
            -1163 -55 574 -109 hlineto
            -68 -3 -31 -66 -3 vhcurveto
            return
          </CharString>
          <CharString index="248">
            261 callgsubr
            -14 callsubr
          </CharString>
          <CharString index="249">
            -120 hlineto
            -89 34 -49 49 -20 vhcurveto
            hintmask 11110010
            -54 -25 -37 -50 -65 vvcurveto
            -105 98 -62 110 117 97 64 103 65 -37 50 -54 25 vhcurveto
            hintmask 11101100
            49 20 34 49 89 vvcurveto
            endchar
          </CharString>
          <CharString index="250">
            vvcurveto
            -103 93 -64 132 155 114 106 141 return
          </CharString>
          <CharString index="251">
            -79 callsubr
            -104 -89 -70 -118 return
          </CharString>
          <CharString index="252">
            -88 -63 -43 -83 -78 55 -43 122 -6 hvcurveto
            return
          </CharString>
          <CharString index="253">
            52 117 56 115 55 hstemhm
            return
          </CharString>
          <CharString index="254">
            -758 -55 244 -143 hlineto
            242 callsubr
            12 23 24 hvcurveto
            42 48 42 25 62 hhcurveto
            return
          </CharString>
          <CharString index="255">
            -27 15 -35 12 -28 vhcurveto
            return
          </CharString>
          <CharString index="256">
            -77 -38 40 106 return
          </CharString>
          <CharString index="257">
            -5 -8 58 407 58 hstem
            76 61 309 64 vstem
            290 50 rmoveto
            -58 -95 43 158 162 86 44 73 86 64 -80 -117 -141 -70 -69 -86 hvcurveto
            -153 return
          </CharString>
          <CharString index="258">
            rmoveto
            -435 -57 186 -617 62 617 187 hlineto
            endchar
          </CharString>
          <CharString index="259">
            96 -6 21 -42 -45 vvcurveto
            -56 -47 -37 -59 -68 -62 42 58 -23 vhcurveto
            -55 -222 60 123 hlineto
            -36 34 62 -19 52 hhcurveto
            93 75 62 85 37 -10 30 -19 23 hvcurveto
            return
          </CharString>
          <CharString index="260">
            -242 -91 callgsubr
            return
          </CharString>
          <CharString index="261">
            170 callgsubr
            hvcurveto
            return
          </CharString>
          <CharString index="262">
            21 -21 455 52 147 58 hstem
            123 61 return
          </CharString>
          <CharString index="263">
            52 195 171 callsubr
            return
          </CharString>
          <CharString index="264">
            62 253 119 callsubr
            return
          </CharString>
          <CharString index="265">
            -143 hlineto
            -64 -15 -34 return
          </CharString>
          <CharString index="266">
            110 63 57 return
          </CharString>
          <CharString index="267">
            373 rmoveto
            -18 -2 -16 -4 -14 vhcurveto
            -262 253 rlineto
            1 268 vlineto
            -268 -62 rmoveto
            244 -233 rlineto
            -40 -25 -43 -21 -46 hhcurveto
            -77 -53 46 106 hvcurveto
            return
          </CharString>
          <CharString index="268">
            -63 callsubr
            vhcurveto
            return
          </CharString>
          <CharString index="269">
            100 74 29 -37 -43 -18 -4 -21 -11 -14 return
          </CharString>
          <CharString index="270">
            rmoveto
            -54 44 -44 54 55 44 44 54 55 -44 44 -55 -54 -44 -44 -55 vhcurveto
            45 hmoveto
            30 24 24 29 30 24 -24 -30 -29 -24 -24 -30 -29 -24 24 29 vhcurveto
            return
          </CharString>
          <CharString index="271">
            -89 callgsubr
            -86 -86 -49 -170 -35 vhcurveto
            return
          </CharString>
          <CharString index="272">
            -82 callsubr
            191 -579 -86 callsubr
          </CharString>
          <CharString index="273">
            hhcurveto
            -96 -58 -52 -65 -64 54 -28 49 -6 hvcurveto
            hintmask 1111110110000000
            -47 -2 -60 -33 -62 vvcurveto
            return
          </CharString>
          <CharString index="274">
            -73 -53 80 -95 hhcurveto
            -54 -52 -27 -64 -46 hvcurveto
            40 -37 rlineto
            53 36 41 19 42 hhcurveto
            return
          </CharString>
          <CharString index="275">
            75 -55 69 -103 -96 -56 -73 -70 -59 30 -53 78 -49 vhcurveto
            -192 -116 49 -38 return
          </CharString>
          <CharString index="276">
            232 callgsubr
            vhcurveto
            23 callgsubr
            return
          </CharString>
          <CharString index="277">
            rmoveto
            617 -62 -674 359 57 vlineto
            endchar
          </CharString>
          <CharString index="278">
            52 99 332 callgsubr
            return
          </CharString>
          <CharString index="279">
            135 callgsubr
            -548 hmoveto
            233 -130 hlineto
            19 -29 -36 12 -44 85 callgsubr
            return
          </CharString>
          <CharString index="280">
            rmoveto
            -70 hlineto
            147 -162 -147 -162 rlineto
            70 hlineto
            150 162 rlineto
            return
          </CharString>
          <CharString index="281">
            rmoveto
            -70 hlineto
            -150 -162 150 -162 rlineto
            70 hlineto
            -147 162 rlineto
            return
          </CharString>
          <CharString index="282">
            199 callgsubr
            vlineto
            return
          </CharString>
          <CharString index="283" raw="1">
            fc1e330a 0b  
          </CharString>
          <CharString index="284">
            -21 187 55 380 52 return
          </CharString>
          <CharString index="285">
            59 169 62 125 62 return
          </CharString>
          <CharString index="286">
            56 34 74 175 return
          </CharString>
          <CharString index="287">
            hhcurveto
            -82 -65 276 callgsubr
            290 callgsubr
            return
          </CharString>
          <CharString index="288">
            48 83 callgsubr
          </CharString>
          <CharString index="289">
            -65 callsubr
            412 callsubr
            return
          </CharString>
          <CharString index="290">
            hlineto
            -92 callgsubr
            140 return
          </CharString>
          <CharString index="291">
            -48 -61 -90 hvcurveto
            -54 -93 -52 93 328 callgsubr
            return
          </CharString>
          <CharString index="292">
            55 187 callsubr
            return
          </CharString>
          <CharString index="293">
            423 rmoveto
            156 116 55 return
          </CharString>
          <CharString index="294">
            107 201 callsubr
            return
          </CharString>
          <CharString index="295">
            106 callsubr
            160 callgsubr
            return
          </CharString>
          <CharString index="296">
            228 callsubr
            55 return
          </CharString>
          <CharString index="297">
            -55 -222 60 hlineto
            return
          </CharString>
          <CharString index="298">
            182 55 rmoveto
            return
          </CharString>
          <CharString index="299">
            14 -85 -157 hlineto
            221 callgsubr
            return
          </CharString>
          <CharString index="300">
            123 vlineto
            -36 34 55 -21 57 hhcurveto
            93 69 63 84 88 -62 39 -107 9 hvcurveto
            -100 8 -39 19 45 vvcurveto
            43 38 25 63 vhcurveto
            endchar
          </CharString>
          <CharString index="301">
            -119 -71 rlineto
            -40 -23 -17 -21 -32 vvcurveto
            -40 32 -35 37 -27 vhcurveto
            42 27 rlineto
            -17 19 -23 25 29 vvcurveto
            12 6 12 14 9 vhcurveto
            return
          </CharString>
          <CharString index="302">
            106 callsubr
            33 62 -7 -80 22 vhcurveto
            -64 -53 hlineto
            -94 callgsubr
            return
          </CharString>
          <CharString index="303">
            hlineto
            -14 -31 -8 -37 -39 -60 callgsubr
            return
          </CharString>
          <CharString index="304">
            -55 348 132 callgsubr
            return
          </CharString>
          <CharString index="305">
            35 callsubr
            endchar
          </CharString>
          <CharString index="306">
            52 92 55 hstemhm
            33 94 87 62 66 61 return
          </CharString>
          <CharString index="307">
            151 55 -594 -55 381 -118 return
          </CharString>
          <CharString index="308">
            52 51 386 callgsubr
            return
          </CharString>
          <CharString index="309">
            327 rmoveto
            hintmask 10111111
            -107 callsubr
            return
          </CharString>
          <CharString index="310">
            61 177 61 vstem
            361 507 rmoveto
            -177 53 hlineto
            67 35 27 48 43 33 -10 -15 29 vhcurveto
            -7 -20 -4 -23 -25 vvcurveto
            return
          </CharString>
          <CharString index="311">
            -83 -46 rlineto
            -30 -17 -14 -21 -26 vvcurveto
            -46 45 -41 30 -22 vhcurveto
            43 30 rlineto
            -19 16 -27 35 28 vvcurveto
            14 7 9 13 8 vhcurveto
            return
          </CharString>
          <CharString index="312">
            -81 -45 rlineto
            -29 -19 -13 -20 -24 vvcurveto
            -47 50 -45 33 -18 vhcurveto
            43 29 rlineto
            -24 21 -28 31 27 vvcurveto
            14 6 12 17 10 vhcurveto
            return
          </CharString>
          <CharString index="313">
            -94 callgsubr
            173 -271 -10 callsubr
          </CharString>
          <CharString index="314">
            55 67 199 callsubr
            return
          </CharString>
          <CharString index="315">
            2 -19 -19 1 -17 hhcurveto
            -156 -90 -107 -115 return
          </CharString>
          <CharString index="316">
            hmoveto
            62 674 -62 hlineto
            return
          </CharString>
          <CharString index="317">
            -60 callgsubr
            159 callsubr
            return
          </CharString>
          <CharString index="318">
            34 callgsubr
            -107 85 -56 return
          </CharString>
          <CharString index="319">
            -21 callsubr
            vstem
            return
          </CharString>
          <CharString index="320">
            -50 -26 -25 -46 -49 vvcurveto
            -85 70 -56 93 63 58 31 45 28 vhcurveto
            -108 244 callsubr
            return
          </CharString>
          <CharString index="321">
            rlineto
            -30 -20 -11 -22 -23 vvcurveto
            -48 53 -38 30 -16 vhcurveto
            44 30 rlineto
            -23 17 -32 26 29 vvcurveto
            15 6 9 13 9 vhcurveto
            return
          </CharString>
          <CharString index="322">
            rlineto
            -26 -22 -11 -23 -21 vvcurveto
            -42 38 -37 48 -21 vhcurveto
            42 27 rlineto
            -30 23 -27 26 27 vvcurveto
            13 8 12 16 15 vhcurveto
            return
          </CharString>
          <CharString index="323">
            96 -128 rlineto
            75 hlineto
            -109 return
          </CharString>
          <CharString index="324">
            -139 hlineto
            -64 -35 -38 -94 vhcurveto
            return
          </CharString>
          <CharString index="325">
            -91 61 507 vlineto
            endchar
          </CharString>
          <CharString index="326">
            -21 130 52 return
          </CharString>
          <CharString index="327">
            hvcurveto
            -223 -100 callsubr
            return
          </CharString>
          <CharString index="328">
            87 72 -41 -78 -86 -70 -37 -87 -58 -41 15 387 callgsubr
            -14 39 42 -12 55 hhcurveto
            141 72 75 98 return
          </CharString>
          <CharString index="329">
            94 callgsubr
            248 callsubr
            return
          </CharString>
          <CharString index="330">
            127 vlineto
            -36 33 57 -23 61 hhcurveto
            92 73 return
          </CharString>
          <CharString index="331">
            -120 hlineto
            -89 34 -51 49 -20 vhcurveto
            return
          </CharString>
          <CharString index="332">
            62 262 55 253 62 -47 -20 return
          </CharString>
          <CharString index="333">
            280 callsubr
            70 63 return
          </CharString>
          <CharString index="334">
            vlineto
            -74 callgsubr
            return
          </CharString>
          <CharString index="335">
            -285 62 -82 callgsubr
            return
          </CharString>
          <CharString index="336">
            241 389 callsubr
            return
          </CharString>
          <CharString index="337">
            211 413 callsubr
            return
          </CharString>
          <CharString index="338">
            -21 103 52 -42 55 return
          </CharString>
          <CharString index="339">
            256 rmoveto
            93 callsubr
            91 65 -46 -90 vhcurveto
            144 323 rmoveto
            55 return
          </CharString>
          <CharString index="340">
            94 47 39 60 return
          </CharString>
          <CharString index="341">
            -55 90 -209 21 callgsubr
            return
          </CharString>
          <CharString index="342">
            51 rmoveto
            -39 -11 -30 -16 -23 vhcurveto
            -149 129 rlineto
            3 13 14 2 15 hhcurveto
            60 48 21 31 26 hvcurveto
            return
          </CharString>
          <CharString index="343">
            rmoveto
            447 callsubr
            -302 hlineto
            return
          </CharString>
          <CharString index="344">
            -18 -4 -21 -11 -14 hvcurveto
            61 hlineto
            8 16 3 21 19 vvcurveto
            return
          </CharString>
          <CharString index="345">
            -83 -55 49 85 89 70 47 95 hvcurveto
            endchar
          </CharString>
          <CharString index="346">
            222 -156 54 return
          </CharString>
          <CharString index="347">
            0 52 233 54 75 52 -49 52 110 55 -55 59 51 callsubr
            72 29 74 62 return
          </CharString>
          <CharString index="348">
            34 callgsubr
            -104 80 -56 99 -3 vhcurveto
            -176 -146 rlineto
            return
          </CharString>
          <CharString index="349">
            239 callgsubr
            -65 -53 hlineto
            332 callsubr
            return
          </CharString>
          <CharString index="350">
            -79 62 -51 74 19 18 4 8 17 vhcurveto
            return
          </CharString>
          <CharString index="351">
            61 449 350 callsubr
            return
          </CharString>
          <CharString index="352">
            216 callsubr
            143 return
          </CharString>
          <CharString index="353">
            -109 79 -89 126 return
          </CharString>
          <CharString index="354">
            -55 348 -95 -107 vlineto
            return
          </CharString>
          <CharString index="355">
            -137 -107 -85 -133 return
          </CharString>
          <CharString index="356">
            -83 -55 55 94 return
          </CharString>
          <CharString index="357">
            -110 -113 return
          </CharString>
          <CharString index="358">
            hhcurveto
            -53 callgsubr
            127 callgsubr
            vhcurveto
            return
          </CharString>
          <CharString index="359">
            rmoveto
            -238 53 hlineto
            67 32 27 46 52 36 -13 -21 40 vhcurveto
            60 vlineto
            20 -37 -40 12 -48 hhcurveto
            return
          </CharString>
          <CharString index="360">
            54 89 52 150 47 121 366 callsubr
            69 62 -39 66 172 62 -55 62 -7 64 return
          </CharString>
          <CharString index="361">
            rmoveto
            -302 -348 302 -62 -674 62 315 348 -315 62 674 vlineto
            endchar
          </CharString>
          <CharString index="362">
            -78 -168 60 670 150 hstem
            9 454 vstem
            return
          </CharString>
          <CharString index="363">
            hlineto
            378 callgsubr
            -39 -65 -23 vhcurveto
            return
          </CharString>
          <CharString index="364">
            -69 callsubr
            -69 callgsubr
            return
          </CharString>
          <CharString index="365">
            61 -57 61 386 callsubr
            return
          </CharString>
          <CharString index="366">
            317 callsubr
            rlineto
            81 hlineto
            return
          </CharString>
          <CharString index="367">
            35 -45 276 174 rlineto
            return
          </CharString>
          <CharString index="368">
            hstem
            45 64 343 64 vstem
            return
          </CharString>
          <CharString index="369">
            287 callgsubr
            121 61 return
          </CharString>
          <CharString index="370">
            vvcurveto
            -27 -5 -30 -7 -18 vhcurveto
            60 hlineto
            5 17 6 30 25 vvcurveto
            126 -97 67 -120 vhcurveto
            return
          </CharString>
          <CharString index="371">
            188 -60 396 callgsubr
            70 128 callgsubr
            return
          </CharString>
          <CharString index="372">
            -108 -75 56 102 113 91 54 114 23 21 -2 -3 20 hvcurveto
            182 114 55 return
          </CharString>
          <CharString index="373">
            -107 85 -56 101 vhcurveto
            97 callgsubr
          </CharString>
          <CharString index="374">
            -160 704 45 hstem
            68 263 vstem
            331 704 278 callsubr
            endchar
          </CharString>
          <CharString index="375">
            vlineto
            67 37 27 36 16 15 -3 -5 13 vhcurveto
            endchar
          </CharString>
          <CharString index="376">
            54 99 52 261 52 125 55 hstemhm
            50 64 -31 66 121 61 -10 62 79 64 return
          </CharString>
          <CharString index="377">
            -55 290 -125 vlineto
            -120 -4 -100 -67 -111 vvcurveto
            -114 103 -69 136 vhcurveto
            return
          </CharString>
          <CharString index="378">
            144 323 298 callgsubr
            -135 vlineto
            -104 -4 -106 -57 -126 vvcurveto
            return
          </CharString>
          <CharString index="379">
            403 107 callgsubr
            184 253 vlineto
            427 hmoveto
            55 return
          </CharString>
          <CharString index="380">
            329 callgsubr
            251 327 callsubr
            return
          </CharString>
          <CharString index="381">
            177 246 callgsubr
            return
          </CharString>
          <CharString index="382">
            hlineto
            4 -24 12 -29 10 -23 22 -50 rcurveline
            55 hlineto
            return
          </CharString>
          <CharString index="383">
            -11 36 52 189 52 250 55 return
          </CharString>
          <CharString index="384">
            vstem
            202 callgsubr
            return
          </CharString>
          <CharString index="385">
            rmoveto
            45 -263 -45 vlineto
            return
          </CharString>
          <CharString index="386">
            -272 263 rlineto
            return
          </CharString>
          <CharString index="387">
            411 callsubr
            hstem
            return
          </CharString>
          <CharString index="388">
            -90 -61 43 89 -19 return
          </CharString>
          <CharString index="389">
            -31 -7 59 -31 -21 return
          </CharString>
          <CharString index="390">
            -196 316 callsubr
            46 58 402 52 -52 179 hstemhm
            108 62 hintmask 11101000
            return
          </CharString>
          <CharString index="391">
            399 293 callsubr
            246 callsubr
            hvcurveto
            return
          </CharString>
          <CharString index="392">
            495 rmoveto
            147 92 rlineto
            -587 61 654 -61 vlineto
            -147 -90 rlineto
            endchar
          </CharString>
          <CharString index="393">
            -11 callsubr
            -55 return
          </CharString>
          <CharString index="394">
            -21 84 51 290 134 callsubr
            60 68 -30 71 220 61 -49 61 return
          </CharString>
          <CharString index="395">
            88 7 rlineto
            57 30 -25 -47 -52 -58 -26 -80 -62 -77 24 28 -45 hvcurveto
            -63 vlineto
            return
          </CharString>
          <CharString index="396">
            65 54 41 87 vhcurveto
            -26 callgsubr
            return
          </CharString>
          <CharString index="397">
            -47 -41 -8 -13 -33 hvcurveto
            -26 15 -30 30 43 83 callgsubr
          </CharString>
          <CharString index="398">
            -124 95 -79 110 88 68 42 48 29 return
          </CharString>
          <CharString index="399">
            260 callgsubr
            507 -61 hlineto
            return
          </CharString>
          <CharString index="400">
            250 callsubr
            hlineto
            -139 -77 -86 -112 return
          </CharString>
          <CharString index="401">
            83 53 196 53 194 55 hstem
            75 63 return
          </CharString>
          <CharString index="402">
            269 callgsubr
            266 360 callsubr
            return
          </CharString>
          <CharString index="403">
            -295 -208 187 vlineto
            return
          </CharString>
          <CharString index="404">
            55 -50 54 412 callgsubr
            return
          </CharString>
          <CharString index="405">
            369 21 -21 583 81 return
          </CharString>
          <CharString index="406">
            15 0 vhcurveto
            -59 vlineto
            -5 12 return
          </CharString>
          <CharString index="407">
            61 277 callsubr
            return
          </CharString>
          <CharString index="408">
            228 21 -21 436 71 return
          </CharString>
          <CharString index="409">
            337 callsubr
            173 62 return
          </CharString>
          <CharString index="410">
            21 -21 456 59 return
          </CharString>
          <CharString index="411">
            150 147 55 return
          </CharString>
          <CharString index="412">
            0 54 49 52 -42 55 223 379 callsubr
            70 63 return
          </CharString>
          <CharString index="413">
            188 -144 93 -9 396 callgsubr
            return
          </CharString>
          <CharString index="414">
            rmoveto
            -90 -74 -45 -99 -98 -77 45 86 81 75 49 92 101 80 -45 -81 vhcurveto
            return
          </CharString>
          <CharString index="415">
            247 callgsubr
            103 57 84 69 callsubr
            194 62 return
          </CharString>
          <CharString index="416">
            rmoveto
            -25 21 -21 25 25 21 21 25 25 -21 21 -25 -25 -21 -21 -25 vhcurveto
            return
          </CharString>
          <CharString index="417">
            53 50 187 callsubr
            hstemhm
            146 71 -3 62 66 61 return
          </CharString>
          <CharString index="418">
            -47 302 callgsubr
            return
          </CharString>
          <CharString index="419">
            13 387 callgsubr
            -13 30 return
          </CharString>
          <CharString index="420">
            159 callsubr
            124 return
          </CharString>
          <CharString index="421">
            -124 98 -79 113 return
          </CharString>
          <CharString index="422">
            hstemhm
            50 65 240 61 return
          </CharString>
          <CharString index="423">
            -238 187 return
          </CharString>
          <CharString index="424">
            -189 -197 return
          </CharString>
          <CharString index="425">
            -83 -89 -39 -93 -98 -83 39 84 84 96 30 86 101 80 -38 -77 vhcurveto
            return
          </CharString>
          <CharString index="426">
            93 -23 50 325 433 callsubr
            -27 94 -7 331 callgsubr
            return
          </CharString>
          <CharString index="427">
            -100 -64 -43 -76 -73 58 -33 107 74 62 -9 -67 -55 -40 -33 -61 hvcurveto
            return
          </CharString>
          <CharString index="428">
            -55 213 -90 callgsubr
            return
          </CharString>
          <CharString index="429">
            55 264 424 callgsubr
            return
          </CharString>
          <CharString index="430">
            54 258 52 123 55 hstem
            50 62 return
          </CharString>
          <CharString index="431">
            89 callgsubr
            -5 hlineto
            return
          </CharString>
          <CharString index="432">
            317 callgsubr
            -59 32 -36 32 -22 hvcurveto
            return
          </CharString>
          <CharString index="433">
            452 callsubr
            52 return
          </CharString>
          <CharString index="434">
            55 hstem
            194 62 return
          </CharString>
          <CharString index="435">
            123 vlineto
            -37 35 return
          </CharString>
          <CharString index="436">
            55 -47 52 hstemhm
            return
          </CharString>
          <CharString index="437">
            21 -21 65 52 return
          </CharString>
          <CharString index="438">
            54 131 55 return
          </CharString>
          <CharString index="439">
            57 callsubr
            -185 283 rlineto
            10 hlineto
            45 35 return
          </CharString>
          <CharString index="440">
            -139 -95 103 107 -26 hvcurveto
            -11 callgsubr
            return
          </CharString>
          <CharString index="441">
            208 callgsubr
            182 55 rmoveto
            return
          </CharString>
          <CharString index="442">
            -80 -14 -42 -47 -53 hhcurveto
            -32 -25 23 36 43 26 35 28 24 hvcurveto
            return
          </CharString>
          <CharString index="443">
            63 142 61 return
          </CharString>
          <CharString index="444">
            62 201 62 return
          </CharString>
          <CharString index="445">
            -55 183 -240 vlineto
            -51 -21 -21 -43 -32 -32 15 0 vhcurveto
            return
          </CharString>
          <CharString index="446">
            358 callsubr
            26 52 179 52 99 55 hstemhm
            75 62 return
          </CharString>
          <CharString index="447">
            54 240 297 callsubr
            136 51 52 62 return
          </CharString>
          <CharString index="448">
            -51 24 46 -24 72 hhcurveto
            110 56 62 110 hvcurveto
            230 return
          </CharString>
          <CharString index="449">
            231 callsubr
            244 69 callsubr
            55 62 return
          </CharString>
          <CharString index="450">
            375 callsubr
            endchar
          </CharString>
          <CharString index="451">
            hintmask 11010000
            80 355 callgsubr
            return
          </CharString>
          <CharString index="452">
            53 196 55 hstemhm
            79 63 -15 70 return
          </CharString>
          <CharString index="453">
            150 261 callsubr
            return
          </CharString>
          <CharString index="454">
            171 callsubr
            253 62 return
          </CharString>
          <CharString index="455">
            -29 21 -21 274 55 290 55 return
          </CharString>
          <CharString index="456">
            406 callsubr
            63 return
          </CharString>
          <CharString index="457">
            403 callsubr
            vhcurveto
            return
          </CharString>
          <CharString index="458">
            hstem
            80 62 383 62 vstem
            return
          </CharString>
          <CharString index="459">
            -135 60 -58 104 -5 vhcurveto
            return
          </CharString>
          <CharString index="460">
            -88 -12 59 410 59 return
          </CharString>
          <CharString index="461">
            327 54 198 55 return
          </CharString>
          <CharString index="462">
            vvcurveto
            52 48 17 45 vhcurveto
            return
          </CharString>
          <CharString index="463">
            280 callgsubr
            59 return
          </CharString>
          <CharString index="464">
            145 52 -145 hlineto
            return
          </CharString>
          <CharString index="465">
            21 388 callgsubr
            return
          </CharString>
          <CharString index="466">
            80 337 callsubr
            return
          </CharString>
          <CharString index="467">
            367 callgsubr
            hstem
            return
          </CharString>
          <CharString index="468">
            -140 61 579 return
          </CharString>
          <CharString index="469">
            52 135 55 hstemhm
            -27 94 -7 64 146 61 106 64 return
          </CharString>
          <CharString index="470">
            4 -16 -24 3 -22 hhcurveto
            -111 -80 -78 -107 -116 87 return
          </CharString>
          <CharString index="471">
            -63 -41 36 55 56 43 44 73 60 48 21 31 26 hvcurveto
            return
          </CharString>
          <CharString index="472">
            21 -21 63 53 return
          </CharString>
          <CharString index="473">
            55 95 55 hstemhm
            return
          </CharString>
          <CharString index="474">
            65 hhcurveto
            120 return
          </CharString>
          <CharString index="475">
            56 vlineto
            6 -13 -26 4 -22 hhcurveto
            -87 -44 -62 -80 hvcurveto
            return
          </CharString>
          <CharString index="476">
            21 -21 70 52 148 55 134 52 68 55 hstemhm
            return
          </CharString>
          <CharString index="477">
            111 -31 -99 17 -47 28 callgsubr
            return
          </CharString>
          <CharString index="478">
            hhcurveto
            -46 -38 -14 -19 -31 hvcurveto
            1 8 0 7 8 vvcurveto
            return
          </CharString>
          <CharString index="479">
            0 54 38 52 247 431 callsubr
            return
          </CharString>
          <CharString index="480">
            -69 -61 52 83 -3 callsubr
            19 -2 -6 17 return
          </CharString>
          <CharString index="481">
            54 50 53 162 callsubr
            return
          </CharString>
          <CharString index="482">
            219 callgsubr
            249 callsubr
            150 callgsubr
            return
          </CharString>
          <CharString index="483">
            106 92 49 79 61 -56 33 -83 -33 -41 -12 -14 -26 return
          </CharString>
          <CharString index="484">
            hlineto
            -33 -26 -15 -36 -39 vvcurveto
            -74 55 -31 30 -9 vhcurveto
            return
          </CharString>
          <CharString index="485">
            21 -21 404 callgsubr
            return
          </CharString>
          <CharString index="486">
            55 -34 69 callsubr
            return
          </CharString>
          <CharString index="487">
            -43 93 -29 -21 48 55 107 52 return
          </CharString>
          <CharString index="488">
            -143 vlineto
            239 callgsubr
            return
          </CharString>
          <CharString index="489">
            -21 230 callsubr
            hstemhm
            return
          </CharString>
          <CharString index="490">
            61 -50 77 -2 hvcurveto
            return
          </CharString>
          <CharString index="491">
            21 -21 171 52 return
          </CharString>
          <CharString index="492">
            191 callgsubr
            vstem
            return
          </CharString>
          <CharString index="493">
            233 61 -41 57 return
          </CharString>
          <CharString index="494">
            52 206 52 return
          </CharString>
          <CharString index="495">
            21 -21 83 52 return
          </CharString>
          <CharString index="496">
            55 130 55 return
          </CharString>
          <CharString index="497">
            222 -55 vlineto
            return
          </CharString>
          <CharString index="498">
            54 -54 224 -222 69 callsubr
            return
          </CharString>
          <CharString index="499">
            vstem
            282 -11 callsubr
            -302 -55 302 hlineto
            return
          </CharString>
          <CharString index="500">
            vstem
            488 -11 callsubr
            -508 -55 508 hlineto
            return
          </CharString>
          <CharString index="501">
            -22 -96 vlineto
            -124 -85 -56 -100 -92 67 -55 92 return
          </CharString>
          <CharString index="502">
            -139 -87 -81 -112 -71 34 -62 68 -30 hvcurveto
            return
          </CharString>
          <CharString index="503">
            -21 197 52 179 52 99 55 hstem
            75 62 return
          </CharString>
          <CharString index="504">
            -238 -185 60 359 61 357 60 hstemhm
            return
          </CharString>
          <CharString index="505">
            103 51 266 54 105 55 hstemhm
            60 62 -12 71 return
          </CharString>
          <CharString index="506">
            269 callgsubr
            141 54 71 367 callgsubr
            return
          </CharString>
          <CharString index="507">
            0 54 76 52 89 57 63 280 callsubr
            return
          </CharString>
          <CharString index="508">
            140 208 189 callsubr
            return
          </CharString>
          <CharString index="509">
            rmoveto
            54 hlineto
            127 214 rlineto
            -90 hlineto
            endchar
          </CharString>
          <CharString index="510">
            -58 vlineto
            219 callgsubr
            return
          </CharString>
          <CharString index="511">
            -412 61 451 61 return
          </CharString>
          <CharString index="512">
            -5 0 55 564 55 return
          </CharString>
          <CharString index="513">
            411 callsubr
            hstemhm
            70 return
          </CharString>
          <CharString index="514">
            -161 -78 -95 -126 return
          </CharString>
          <CharString index="515">
            -164 61 203 61 return
          </CharString>
          <CharString index="516">
            424 56 -424 hlineto
            return
          </CharString>
          <CharString index="517">
            120 55 hlineto
            endchar
          </CharString>
          <CharString index="518">
            55 133 55 return
          </CharString>
          <CharString index="519">
            0 35 9 24 return
          </CharString>
          <CharString index="520">
            56 312 55 return
          </CharString>
          <CharString index="521">
            60 -51 209 callgsubr
            149 62 return
          </CharString>
          <CharString index="522">
            -31 -38 34 hvcurveto
            -235 -191 rlineto
            88 hlineto
            return
          </CharString>
          <CharString index="523">
            21 299 callgsubr
            hstem
            75 62 return
          </CharString>
          <CharString index="524">
            -55 370 -313 hlineto
            -64 -55 -47 -60 vhcurveto
            return
          </CharString>
          <CharString index="525">
            57 vstem
            45 451 rmoveto
            57 230 -57 hlineto
            return
          </CharString>
          <CharString index="526" raw="1">
            fb010644 886c3f1e 4a56060b 
          </CharString>
          <CharString index="527">
            92 52 266 360 callsubr
            60 62 return
          </CharString>
          <CharString index="528">
            65 -24 53 -53 28 vhcurveto
            124 vlineto
            endchar
          </CharString>
          <CharString index="529">
            184 339 rmoveto
            240 return
          </CharString>
          <CharString index="530">
            60 205 61 177 62 return
          </CharString>
          <CharString index="531">
            117 callgsubr
            29 56 return
          </CharString>
          <CharString index="532">
            133 55 hstem
            111 63 return
          </CharString>
          <CharString index="533">
            327 rmoveto
            316 callgsubr
            return
          </CharString>
          <CharString index="534">
            54 133 55 hstem
            28 66 return
          </CharString>
          <CharString index="535">
            rmoveto
            -36 -19 -31 -24 -38 hhcurveto
            return
          </CharString>
          <CharString index="536">
            -27 53 -16 -21 265 52 return
          </CharString>
          <CharString index="537">
            rmoveto
            3 -11 -21 3 -9 hhcurveto
            return
          </CharString>
          <CharString index="538">
            55 -36 361 callgsubr
            return
          </CharString>
          <CharString index="539">
            214 62 66 61 return
          </CharString>
          <CharString index="540">
            51 126 55 hstemhm
            return
          </CharString>
          <CharString index="541">
            hstem
            201 62 vstem
            return
          </CharString>
          <CharString index="542">
            481 214 hstem
            return
          </CharString>
          <CharString index="543">
            55 hstem
            224 62 return
          </CharString>
          <CharString index="544">
            62 157 61 return
          </CharString>
          <CharString index="545">
            56 188 56 return
          </CharString>
          <CharString index="546">
            63 -52 63 269 63 -46 63 hintmask 11110010
            return
          </CharString>
          <CharString index="547">
            233 callsubr
            29 21 -10 -13 15 vhcurveto
            return
          </CharString>
          <CharString index="548">
            62 vstem
            145 hmoveto
            62 634 -62 hlineto
            return
          </CharString>
          <CharString index="549">
            73 37 42 47 139 callsubr
            return
          </CharString>
          <CharString index="550">
            -70 -65 24 64 41 23 31 43 20 hvcurveto
            return
          </CharString>
          <CharString index="551">
            vvcurveto
            38 -10 32 -16 24 vhcurveto
            202 hlineto
            return
          </CharString>
          <CharString index="552">
            vlineto
            -110 -3 -125 -47 -116 vvcurveto
            return
          </CharString>
          <CharString index="553">
            -88 -63 -43 -83 -82 383 callsubr
            return
          </CharString>
          <CharString index="554">
            120 81 callgsubr
            120 55 return
          </CharString>
          <CharString index="555">
            -33 14 -43 28 callsubr
            return
          </CharString>
          <CharString index="556">
            -89 -67 -38 -83 -73 65 -34 83 -2 hvcurveto
            return
          </CharString>
          <CharString index="557">
            -95 -63 -48 -76 -86 79 -30 106 -7 hvcurveto
            return
          </CharString>
          <CharString index="558">
            -879 rmoveto
            62 674 -62 hlineto
            endchar
          </CharString>
          <CharString index="559">
            21 -21 177 return
          </CharString>
          <CharString index="560">
            54 240 55 return
          </CharString>
          <CharString index="561">
            55 hstemhm
            80 62 return
          </CharString>
        <CharString name=".notdef">
          -50 0 49 603 49 hstem
          0 51 400 51 vstem
          0 vmoveto
          502 701 -502 hlineto
          51 -49 rmoveto
          400 -603 -400 hlineto
          200 253 rmoveto
          105 -209 rlineto
          60 hlineto
          -135 254 135 261 rlineto
          -60 hlineto
          -100 -206 rlineto
          -4 hlineto
          -105 206 rlineto
          -60 hlineto
          134 -255 -134 -260 rlineto
          60 hlineto
          100 209 rlineto
          endchar
        </CharString>
        <CharString name="A">
          114 callsubr
          hstem
          38 561 vstem
          189 242 -87 callsubr
        </CharString>
        <CharString name="AE">
          303 0 57 130 55 66 57 252 57 hstem
          453 62 vstem
          238 242 rmoveto
          25 42 94 159 62 108 34 61 rlinecurve
          -370 vlineto
          62 -185 rmoveto
          251 262 57 -262 252 297 57 -387 vlineto
          -398 -674 rlineto
          67 hlineto
          111 187 rlineto
          248 -187 365 57 hlineto
          endchar
        </CharString>
        <CharString name="Aacute">
          114 callsubr
          55 150 hstem
          38 561 vstem
          483 879 95 callgsubr
          -166 -487 -87 callsubr
        </CharString>
        <CharString name="Abreve">
          114 callsubr
          51 48 105 -20 hstem
          166 387 callsubr
          vstem
          424 878 12 callsubr
          -287 -636 -87 callsubr
        </CharString>
        <CharString name="Acircumflex">
          114 callsubr
          55 150 hstem
          38 561 vstem
          321 836 rmoveto
          -22 callsubr
          -46 -487 -87 callsubr
        </CharString>
        <CharString name="Adieresis">
          114 callsubr
          88 86 hstem
          186 86 98 86 vstem
          413 762 -27 callgsubr
          -40 -520 -87 callsubr
        </CharString>
        <CharString name="Agrave">
          114 callsubr
          55 150 hstem
          38 561 vstem
          341 729 126 callgsubr
          -97 -487 -87 callsubr
        </CharString>
        <CharString name="Amacron">
          114 callsubr
          107 45 hstem
          38 561 vstem
          453 826 297 callgsubr
          -264 -539 -87 callsubr
        </CharString>
        <CharString name="Aogonek">
          77 -237 48 210 177 callsubr
          hstem
          432 56 vstem
          189 242 rmoveto
          15 42 rlineto
          104 299 13 39 0 vvcurveto
          0 12 -39 102 -298 vhcurveto
          15 -43 rlineto
          -84 432 rmoveto
          -90 hlineto
          -238 -674 rlineto
          67 hlineto
          65 187 rlineto
          298 hlineto
          60 -176 rlineto
          -53 -30 -43 -51 -59 -13 callgsubr
          54 49 42 62 28 hvcurveto
          endchar
        </CharString>
        <CharString name="Aring">
          114 callsubr
          45 45 107 45 hstem
          223 45 107 45 vstem
          321 871 52 callsubr
          -132 -477 -87 callsubr
        </CharString>
        <CharString name="Atilde">
          114 callsubr
          88 49 -3 49 hstemhm
          38 561 hintmask 11110100
          440 854 147 callgsubr
          hintmask 11101100
          -40 callgsubr
          hintmask 11110100
          35 callsubr
          -293 -584 -87 callsubr
        </CharString>
        <CharString name="B">
          2 0 55 258 55 251 454 callsubr
          290 65 -45 65 hintmask 11110100
          142 55 rmoveto
          258 153 vlineto
          98 59 -47 -85 -83 -52 -43 -86 hvcurveto
          -172 564 rmoveto
          133 hlineto
          hintmask 11111000
          110 47 -56 -62 -71 -45 -62 -124 hvcurveto
          -121 hlineto
          -62 306 rmoveto
          -674 234 vlineto
          hintmask 11110100
          135 68 75 104 104 -71 52 -69 8 hvcurveto
          hintmask 11111000
          69 14 51 61 81 vvcurveto
          111 -96 64 -133 vhcurveto
          endchar
        </CharString>
        <CharString name="C">
          39 -8 59 573 59 hstem
          50 64 vstem
          557 647 80 callsubr
        </CharString>
        <CharString name="CR">
          endchar
        </CharString>
        <CharString name="Cacute">
          39 -8 59 573 59 46 150 hstem
          50 64 vstem
          557 647 -72 callsubr
          -220 147 -14 callgsubr
          endchar
        </CharString>
        <CharString name="Ccaron">
          39 -8 59 573 59 46 150 hstem
          50 64 vstem
          557 647 -72 callsubr
          -142 147 -41 callsubr
          endchar
        </CharString>
        <CharString name="Ccedilla">
          39 -248 49 191 59 573 59 hstem
          50 64 245 56 vstem
          336 -51 rmoveto
          17 -28 6 -19 -28 vvcurveto
          -42 -30 -25 -57 -6 vhcurveto
          -49 vlineto
          96 4 47 58 65 vvcurveto
          22 -7 32 -11 16 vhcurveto
          160 698 80 callsubr
        </CharString>
        <CharString name="Ccircumflex">
          39 -8 59 573 59 46 150 hstem
          50 64 vstem
          557 647 -72 callsubr
          -221 297 -57 callsubr
          endchar
        </CharString>
        <CharString name="Cdotaccent">
          39 -8 59 573 59 81 86 hstem
          50 64 214 86 vstem
          328 807 rmoveto
          -24 19 -19 24 -63 callgsubr
          vhcurveto
          229 -160 80 callsubr
        </CharString>
        <CharString name="D">
          95 0 57 560 57 hstem
          80 62 403 65 vstem
          142 57 rmoveto
          560 66 callsubr
          -674 99 callsubr
        </CharString>
        <CharString name="Dcaron">
          95 0 57 560 57 54 43 -43 150 hstemhm
          80 62 403 65 hintmask 11011100
          334 728 234 callgsubr
          -129 -671 rmoveto
          560 66 callsubr
          -674 99 callsubr
        </CharString>
        <CharString name="Dcroat">
          31 callsubr
        </CharString>
        <CharString name="Delta">
          41 0 55 570 49 hstem
          30 541 vstem
          97 55 rmoveto
          73 205 rlineto
          107 298 26 67 0 vvcurveto
          0 26 -66 104 -298 vhcurveto
          72 -206 rlineto
          -157 619 rmoveto
          -90 hlineto
          -228 -617 rlineto
          -57 541 57 vlineto
          endchar
        </CharString>
        <CharString name="E">
          114 callgsubr
          389 callgsubr
          142 57 -33 callgsubr
        </CharString>
        <CharString name="Eacute">
          114 callgsubr
          55 150 389 callgsubr
          433 879 95 callgsubr
          -163 -672 -33 callgsubr
        </CharString>
        <CharString name="Ebreve">
          114 callgsubr
          52 48 hstemhm
          80 62 -32 387 callsubr
          hintmask 11111010
          368 879 rmoveto
          -55 -24 -50 -79 vhcurveto
          hintmask 11110110
          -79 -24 50 55 hvcurveto
          77 callgsubr
          hintmask 11111010
          -278 -822 -33 callgsubr
        </CharString>
        <CharString name="Ecaron">
          114 callgsubr
          54 43 -43 150 hstemhm
          80 62 hintmask 11101100
          301 448 callgsubr
          hintmask 11110100
          -86 -107 rlineto
          hintmask 11101100
          -87 107 rlineto
          -64 hlineto
          119 -150 rlineto
          -96 -671 -33 callgsubr
        </CharString>
        <CharString name="Ecircumflex">
          114 callgsubr
          55 150 389 callgsubr
          273 836 rmoveto
          -22 callsubr
          -45 -672 -33 callgsubr
        </CharString>
        <CharString name="Edieresis">
          114 callgsubr
          86 86 hstemhm
          80 62 -10 86 98 86 hintmask 11111010
          359 760 rmoveto
          -63 callgsubr
          -24 19 -19 24 hvcurveto
          hintmask 11110110
          -184 hmoveto
          24 19 19 24 25 -19 18 -24 -25 -18 -18 -25 -24 18 -19 25 hvcurveto
          hintmask 11111010
          -33 -703 -33 callgsubr
        </CharString>
        <CharString name="Edotaccent">
          114 callgsubr
          89 86 hstem
          80 62 88 86 vstem
          273 763 rmoveto
          -63 callgsubr
          -24 19 -19 24 hvcurveto
          -131 -706 -33 callgsubr
        </CharString>
        <CharString name="Egrave">
          114 callgsubr
          54 150 389 callgsubr
          313 728 126 callgsubr
          -116 -671 -33 callgsubr
        </CharString>
        <CharString name="Emacron">
          114 callgsubr
          107 45 389 callgsubr
          392 826 297 callgsubr
          -250 -724 -33 callgsubr
        </CharString>
        <CharString name="Eng">
          107 -200 59 162 -21 601 73 351 callsubr
          525 674 rmoveto
          -286 vlineto
          -211 2 -104 0 vhcurveto
          0 -62 104 -128 212 vhcurveto
          -172 285 rlineto
          -85 -674 62 285 hlineto
          208 -2 108 0 vhcurveto
          0 65 -109 126 -209 vhcurveto
          171 -283 rlineto
          23 -45 hlineto
          -66 -31 -30 -60 -31 -31 11 16 -24 vhcurveto
          -63 vlineto
          -15 25 39 -8 28 hhcurveto
          77 70 34 131 hvcurveto
          709 vlineto
          endchar
        </CharString>
        <CharString name="Eogonek">
          -70 -237 48 189 57 251 57 252 57 hstemhm
          80 62 23 56 hintmask 11111000
          445 hmoveto
          57 -303 251 262 57 -262 252 297 57 -359 -674 vlineto
          hintmask 11111100
          164 hlineto
          -45 -31 -34 -46 -52 -13 callgsubr
          54 49 42 62 28 hvcurveto
          endchar
        </CharString>
        <CharString name="Eth">
          31 callsubr
        </CharString>
        <CharString name="Euro">
          22 -8 59 175 49 110 49 166 59 -19 -20 hstemhm
          149 64 hintmask 11101100
          542 640 rmoveto
          hintmask 11110100
          15 -30 -43 4 -37 hhcurveto
          -132 -104 -83 -142 -35 hvcurveto
          -106 -49 98 hlineto
          -3 -19 -1 -20 -21 vvcurveto
          -17 1 -17 2 -16 vhcurveto
          -97 -49 104 hlineto
          -146 33 106 -88 127 hhcurveto
          42 40 3 18 35 hvcurveto
          59 vlineto
          -17 -31 -41 -4 -37 hhcurveto
          -95 -83 61 114 -30 hvcurveto
          205 49 -214 hlineto
          -2 16 -1 17 17 vvcurveto
          21 1 20 3 19 vhcurveto
          213 49 -203 hlineto
          109 30 79 57 102 hhcurveto
          37 38 -4 -15 29 hvcurveto
          endchar
        </CharString>
        <CharString name="F">
          -76 21 -21 303 57 257 57 389 callgsubr
          439 617 rmoveto
          57 -359 -674 62 303 262 57 -262 257 vlineto
          endchar
        </CharString>
        <CharString name="G">
          101 -8 225 callsubr
          hstemhm
          50 64 415 62 hintmask 11011100
          591 371 48 callgsubr
          hvcurveto
          hintmask 11101100
          145 callgsubr
          vhcurveto
          hintmask 11011100
          69 vlineto
          hintmask 11101100
          8 callgsubr
        </CharString>
        <CharString name="Gbreve">
          101 -8 225 callsubr
          107 48 hstemhm
          50 64 97 387 callsubr
          8 62 hintmask 1101111110000000
          469 879 12 callsubr
          hintmask 1110111010000000
          70 -508 48 callgsubr
          145 callgsubr
          hvcurveto
          hintmask 1101111010000000
          69 vlineto
          hintmask 1110111010000000
          8 callgsubr
        </CharString>
        <CharString name="Gcircumflex">
          101 -8 225 callsubr
          109 150 -43 43 hstemhm
          50 64 415 62 hintmask 11010111
          361 835 rmoveto
          hintmask 11101011
          -22 callsubr
          316 -357 48 callgsubr
          145 callgsubr
          hvcurveto
          hintmask 11011011
          69 vlineto
          hintmask 11101011
          8 callgsubr
        </CharString>
        <CharString name="Gdotaccent">
          101 -8 225 callsubr
          143 86 hstemhm
          50 64 214 86 115 62 hintmask 11011111
          371 762 rmoveto
          -63 callgsubr
          -24 19 -19 24 hvcurveto
          220 -391 48 callgsubr
          hvcurveto
          hintmask 11101111
          145 callgsubr
          vhcurveto
          hintmask 11011111
          69 vlineto
          hintmask 11101111
          8 callgsubr
        </CharString>
        <CharString name="H">
          72 21 -21 315 57 hstem
          80 62 348 62 vstem
          490 674 254 callsubr
        </CharString>
        <CharString name="Hbar">
          122 21 -21 315 57 146 50 hstem
          105 62 348 62 vstem
          515 372 rmoveto
          -348 146 348 hlineto
          137 50 rmoveto
          -75 106 -62 -106 -348 106 -62 -106 -75 -50 75 -518 62 315 348 -315 62 518 75 hlineto
          endchar
        </CharString>
        <CharString name="Hcircumflex">
          72 21 -21 315 57 356 150 -43 43 hstemhm
          80 62 348 62 hintmask 11011100
          321 835 rmoveto
          hintmask 11101100
          -22 callsubr
          255 -54 254 callsubr
        </CharString>
        <CharString name="I">
          438 callgsubr
          hstem
          85 62 vstem
          85 209 callsubr
          endchar
        </CharString>
        <CharString name="IJ">
          -26 0 59 hstem
          85 62 245 62 vstem
          85 209 callsubr
          130 -651 98 callsubr
          endchar
        </CharString>
        <CharString name="Iacute">
          438 callgsubr
          729 150 hstem
          85 62 vstem
          85 209 callsubr
          8 55 -14 callgsubr
          endchar
        </CharString>
        <CharString name="Ibreve">
          438 callgsubr
          726 48 hstem
          -38 52 71 62 73 52 vstem
          -38 879 13 callgsubr
          71 451 callsubr
        </CharString>
        <CharString name="Icircumflex">
          438 callgsubr
          729 150 hstem
          85 62 vstem
          85 879 -57 callsubr
          -63 451 callsubr
        </CharString>
        <CharString name="Idieresis">
          438 callgsubr
          761 86 hstemhm
          -18 86 17 62 19 86 hintmask 11010000
          85 209 callsubr
          hintmask 11111000
          -103 130 -28 callsubr
          endchar
        </CharString>
        <CharString name="Idotaccent">
          438 callgsubr
          764 86 hstemhm
          74 86 -75 62 hintmask 11010000
          85 209 callsubr
          hintmask 11100000
          -11 133 rmoveto
          -24 19 -19 24 -63 callgsubr
          vhcurveto
          endchar
        </CharString>
        <CharString name="Igrave">
          438 callgsubr
          729 150 hstem
          85 62 vstem
          85 209 callsubr
          -48 205 86 callsubr
          endchar
        </CharString>
        <CharString name="Imacron">
          438 callgsubr
          781 45 hstem
          85 62 vstem
          85 209 callsubr
          163 107 278 callsubr
          endchar
        </CharString>
        <CharString name="Iogonek">
          -328 -237 48 210 -21 hstem
          -20 56 49 62 vstem
          147 674 rmoveto
          -62 -658 hlineto
          -57 -30 -48 -53 -62 -13 callgsubr
          54 49 42 62 28 hvcurveto
          endchar
        </CharString>
        <CharString name="Itilde">
          438 callgsubr
          759 49 -3 49 hstemhm
          85 62 hintmask 10110000
          85 209 callsubr
          hintmask 11010000
          151 177 147 callgsubr
          hintmask 10110000
          -40 callgsubr
          hintmask 11010000
          198 callsubr
        </CharString>
        <CharString name="J">
          -211 0 59 hstem
          207 62 vstem
          30 23 98 callsubr
          endchar
        </CharString>
        <CharString name="Jcircumflex">
          -160 0 59 669 150 -43 43 hstemhm
          207 62 hintmask 11010000
          30 23 98 callsubr
          178 792 rmoveto
          -5 callgsubr
          hintmask 10110000
          86 107 rlineto
          hintmask 11010000
          2 callsubr
          endchar
        </CharString>
        <CharString name="K">
          -11 21 -21 389 callgsubr
          80 209 callsubr
          159 -342 273 callgsubr
        </CharString>
        <CharString name="L">
          -86 0 57 389 callgsubr
          142 57 170 callsubr
        </CharString>
        <CharString name="Lacute">
          -86 0 57 672 150 389 callgsubr
          438 879 95 callgsubr
          -168 -672 170 callsubr
        </CharString>
        <CharString name="Lcaron">
          -86 0 57 458 187 389 callgsubr
          404 702 rmoveto
          -76 hlineto
          -88 -187 rlineto
          54 hlineto
          -152 -458 170 callsubr
        </CharString>
        <CharString name="Ldot">
          -81 0 57 252 101 hstem
          80 62 108 102 vstem
          300 309 rmoveto
          29 23 21 29 28 -23 23 -29 -29 -21 -23 -28 -29 21 -21 29 hvcurveto
          -158 -252 170 callsubr
        </CharString>
        <CharString name="Lslash">
          -77 0 57 hstem
          89 62 vstem
          151 57 rmoveto
          245 vlineto
          146 108 rlineto
          66 vlineto
          -146 -108 rlineto
          306 -62 -352 vlineto
          -64 -48 rlineto
          -66 vlineto
          64 48 rlineto
          -256 359 57 vlineto
          endchar
        </CharString>
        <CharString name="M">
          288 21 -21 593 81 hstem
          75 699 vstem
          75 hmoveto
          62 hlineto
          19 267 rlineto
          12 168 9 151 0 vvcurveto
          112 -319 88 -250 rlineto
          73 hlineto
          93 250 rlineto
          59 159 60 167 0 vvcurveto
          0 13 -166 14 -160 vhcurveto
          23 -267 rlineto
          62 hlineto
          -57 674 rlineto
          -85 hlineto
          -92 -247 rlineto
          -57 -153 -69 -190 0 vvcurveto
          0 -67 196 -52 147 vhcurveto
          -88 247 rlineto
          -85 hlineto
          endchar
        </CharString>
        <CharString name="N">
          107 21 -21 601 73 351 callsubr
          98 callgsubr
          endchar
        </CharString>
        <CharString name="NULL">
          endchar
        </CharString>
        <CharString name="Nacute">
          107 21 -21 601 73 54 150 351 callsubr
          332 728 -14 callgsubr
          -354 -878 rmoveto
          -51 callsubr
          endchar
        </CharString>
        <CharString name="Ncaron">
          107 21 -21 601 73 55 150 351 callsubr
          98 callgsubr
          304 55 -41 callsubr
          endchar
        </CharString>
        <CharString name="Ntilde">
          107 21 -21 601 73 87 49 -3 49 hstemhm
          80 62 383 62 hintmask 11011100
          98 callgsubr
          hintmask 11101100
          382 179 -9 callgsubr
          endchar
        </CharString>
        <CharString name="O">
          177 callgsubr
          hstem
          50 64 463 64 vstem
          62 callsubr
          endchar
        </CharString>
        <CharString name="OE">
          419 -8 60 -52 57 251 57 252 57 -46 60 hstemhm
          50 64 455 62 hintmask 10101110
          342 52 rmoveto
          -140 -88 109 179 179 81 109 145 150 79 -109 -179 -179 -79 -109 -148 hvcurveto
          hintmask 01110110
          289 5 rmoveto
          251 262 57 -262 252 297 57 -359 -98 vlineto
          hintmask 10101110
          71 -49 -77 41 -103 hhcurveto
          -181 -109 -136 -212 -212 114 -136 178 100 78 41 73 49 hvcurveto
          hintmask 01110110
          -106 365 57 vlineto
          endchar
        </CharString>
        <CharString name="Oacute">
          137 callsubr
          327 729 -14 callgsubr
          -379 -539 -87 callgsubr
          endchar
        </CharString>
        <CharString name="Obreve">
          177 callgsubr
          38 48 hstem
          50 64 80 387 callsubr
          73 64 vstem
          194 879 13 callgsubr
          -132 -539 rmoveto
          179 86 109 145 150 82 -109 -179 -179 -82 -109 -148 -140 -93 109 179 vhcurveto
          -64 hmoveto
          -212 119 -136 178 182 112 136 212 212 -108 136 -188 -181 -114 -136 -212 vhcurveto
          endchar
        </CharString>
        <CharString name="Ocircumflex">
          137 callsubr
          114 340 rmoveto
          179 86 109 145 150 82 -109 -179 -179 -82 -109 -148 -140 -93 109 179 vhcurveto
          -64 hmoveto
          -212 119 -136 178 182 112 136 212 212 -108 136 -188 -181 -114 -136 -212 vhcurveto
          272 539 -57 callsubr
          endchar
        </CharString>
        <CharString name="Odieresis">
          177 callgsubr
          74 86 hstem
          50 64 99 86 98 86 94 64 vstem
          213 805 -28 callsubr
          -347 -465 -87 callgsubr
          endchar
        </CharString>
        <CharString name="Ograve">
          137 callsubr
          62 callsubr
          166 539 86 callsubr
          endchar
        </CharString>
        <CharString name="Ohungarumlaut">
          137 callsubr
          412 729 67 callgsubr
          -313 -539 -87 callgsubr
          endchar
        </CharString>
        <CharString name="Omacron">
          177 callgsubr
          93 45 hstem
          50 64 463 64 vstem
          479 781 278 callsubr
          -166 -441 -87 callgsubr
          endchar
        </CharString>
        <CharString name="Oslash">
          104 -8 60 576 60 hstem
          42 64 463 64 vstem
          520 536 rmoveto
          32 -49 17 -66 -81 vvcurveto
          -179 -82 -109 -148 -56 -49 18 33 -38 vhcurveto
          -39 43 rmoveto
          -33 49 -18 65 80 vvcurveto
          179 86 109 145 59 48 -17 -31 37 vhcurveto
          153 108 rmoveto
          -72 hlineto
          -44 -58 rlineto
          37 -47 -61 21 -73 hhcurveto
          -181 -114 -136 -212 -102 27 -84 49 -60 hvcurveto
          -77 -103 rlineto
          71 hlineto
          46 62 rlineto
          -39 49 61 -22 71 hhcurveto
          182 112 136 212 103 -26 85 -47 61 hvcurveto
          endchar
        </CharString>
        <CharString name="Otilde">
          177 callgsubr
          75 49 -3 49 hstemhm
          50 64 463 64 hintmask 11011100
          62 callsubr
          hintmask 11101100
          353 515 -9 callgsubr
          endchar
        </CharString>
        <CharString name="P">
          -20 21 -21 256 55 308 55 hstem
          80 62 290 63 vstem
          142 311 rmoveto
          308 107 vlineto
          117 66 -64 -97 -81 -63 -66 -109 hvcurveto
          -180 363 rmoveto
          -674 62 256 111 vlineto
          154 88 95 107 126 -92 90 -161 hvcurveto
          endchar
        </CharString>
        <CharString name="Q">
          141 -8 60 -35 -21 632 60 hstemhm
          50 64 463 64 hintmask 10111000
          114 340 rmoveto
          179 86 109 145 150 82 -109 -179 -179 -82 -109 -148 -140 -93 109 179 vhcurveto
          554 -451 rmoveto
          hintmask 01111000
          -198 128 rlineto
          108 48 63 116 159 vvcurveto
          212 -108 136 -188 -181 -114 -136 -212 vhcurveto
          hintmask 10111000
          -212 119 -136 178 19 18 1 3 17 vhcurveto
          202 -135 rlineto
          endchar
        </CharString>
        <CharString name="R">
          348 callsubr
          hstem
          80 62 263 62 vstem
          142 329 0 callgsubr
        </CharString>
        <CharString name="Racute">
          348 callsubr
          55 150 hstem
          80 62 263 62 vstem
          419 879 95 callgsubr
          -149 -400 0 callgsubr
        </CharString>
        <CharString name="Rcaron">
          348 callsubr
          54 43 -43 150 hstemhm
          80 62 263 62 hintmask 11101110
          300 448 callgsubr
          hintmask 11110110
          -86 -107 rlineto
          hintmask 11101110
          -87 107 rlineto
          -64 hlineto
          119 -150 rlineto
          -95 -399 0 callgsubr
        </CharString>
        <CharString name="S">
          -33 -7 60 566 61 hstem
          73 64 262 63 vstem
          423 650 -85 callgsubr
          endchar
        </CharString>
        <CharString name="Sacute">
          -33 -7 60 566 61 48 150 hstem
          73 64 262 63 vstem
          259 728 -14 callgsubr
          62 -228 -85 callgsubr
          endchar
        </CharString>
        <CharString name="Scaron">
          -33 -7 60 566 61 48 43 -43 150 hstemhm
          73 64 262 63 hintmask 11011100
          423 650 -85 callgsubr
          -129 147 234 callgsubr
          endchar
        </CharString>
        <CharString name="Scircumflex">
          -33 -7 60 566 61 48 150 -43 43 hstemhm
          73 64 262 63 hintmask 11101100
          423 650 -85 callgsubr
          -201 297 rmoveto
          -5 callgsubr
          hintmask 11011100
          86 107 rlineto
          hintmask 11101100
          2 callsubr
          endchar
        </CharString>
        <CharString name="T">
          -95 21 -21 617 57 434 callsubr
          450 674 151 callsubr
        </CharString>
        <CharString name="Tbar">
          -95 21 -21 305 51 261 57 434 callsubr
          450 617 rmoveto
          57 -435 -57 186 -261 -120 -51 120 -305 62 305 120 51 -120 261 vlineto
          endchar
        </CharString>
        <CharString name="Tcaron">
          -95 21 -21 617 57 55 150 434 callsubr
          265 729 -41 callsubr
          248 -55 151 callsubr
        </CharString>
        <CharString name="Thorn">
          -31 21 -21 128 55 308 55 hstem
          80 62 280 63 vstem
          142 183 rmoveto
          308 97 vlineto
          127 56 -64 -97 -81 -53 -66 -119 hvcurveto
          -108 363 rmoveto
          128 -62 -674 62 128 101 vlineto
          164 78 95 107 126 -82 90 -171 hvcurveto
          endchar
        </CharString>
        <CharString name="U">
          79 -8 60 hstem
          80 62 355 62 vstem
          497 253 12 callgsubr
        </CharString>
        <CharString name="Uacute">
          79 -8 60 677 150 hstem
          80 62 355 62 vstem
          304 729 -14 callgsubr
          91 -626 12 callgsubr
        </CharString>
        <CharString name="Ubreve">
          79 -8 60 673 48 105 -20 hstemhm
          80 62 27 387 callsubr
          18 62 vstemhm
          169 878 13 callgsubr
          hintmask 11110010
          276 -625 12 callgsubr
        </CharString>
        <CharString name="Ucircumflex">
          79 -8 60 677 150 hstem
          80 62 355 62 vstem
          497 253 -74 callsubr
          -206 205 -57 callsubr
          endchar
        </CharString>
        <CharString name="Udieresis">
          79 -8 60 710 86 hstem
          80 62 43 86 98 86 42 62 vstem
          185 805 -28 callsubr
          128 -552 12 callgsubr
        </CharString>
        <CharString name="Ugrave">
          79 -8 60 677 150 hstem
          80 62 355 62 vstem
          497 253 -74 callsubr
          -250 205 86 callsubr
          endchar
        </CharString>
        <CharString name="Uhungarumlaut">
          79 -8 60 677 150 hstem
          80 62 355 62 vstem
          497 253 -74 callsubr
          -133 55 67 callgsubr
          endchar
        </CharString>
        <CharString name="Umacron">
          79 -8 60 729 45 hstem
          80 62 355 62 vstem
          497 253 -74 callsubr
          -44 107 278 callsubr
          endchar
        </CharString>
        <CharString name="Uogonek">
          79 -231 48 175 60 hstem
          80 62 103 56 196 62 vstem
          497 674 rmoveto
          -421 vlineto
          -147 -73 -54 -106 -101 -75 55 141 vhcurveto
          426 -62 -427 vlineto
          -164 84 -86 142 -5 vhcurveto
          -36 -30 -25 -40 -45 -13 callgsubr
          54 49 42 61 28 hvcurveto
          94 30 54 83 136 vvcurveto
          419 vlineto
          endchar
        </CharString>
        <CharString name="Uring">
          79 -8 60 666 45 107 45 hstem
          80 62 82 45 107 45 76 62 vstem
          224 816 163 callsubr
          228 -563 12 callgsubr
        </CharString>
        <CharString name="Utilde">
          79 -8 60 708 49 -3 49 hstemhm
          80 62 355 62 hintmask 10111000
          497 253 -74 callsubr
          hintmask 11011000
          -52 178 147 callgsubr
          hintmask 10111000
          -40 callgsubr
          hintmask 11011000
          198 callsubr
        </CharString>
        <CharString name="V">
          71 0 55 hstem
          40 551 vstem
          591 674 rmoveto
          -67 hlineto
          -92 -267 -120 -352 rlineto
          0 -43 132 -73 220 vhcurveto
          -89 267 rlineto
          -67 hlineto
          229 -674 rlineto
          85 hlineto
          endchar
        </CharString>
        <CharString name="W">
          298 callsubr
          hstem
          40 849 vstem
          432 664 -81 callgsubr
          endchar
        </CharString>
        <CharString name="Wacute">
          298 callsubr
          65 150 hstem
          40 849 vstem
          432 664 -81 callgsubr
          -58 65 -14 callgsubr
          endchar
        </CharString>
        <CharString name="Wcircumflex">
          298 callsubr
          65 150 hstem
          40 849 vstem
          432 664 -81 callgsubr
          -66 215 -57 callsubr
          endchar
        </CharString>
        <CharString name="Wdieresis">
          298 callsubr
          96 86 hstem
          335 86 98 86 vstem
          432 664 -81 callgsubr
          14 139 rmoveto
          -24 19 -19 24 -63 callgsubr
          vhcurveto
          -184 hmoveto
          -24 18 -19 25 24 19 19 24 25 -19 18 -24 -25 -18 -18 -25 vhcurveto
          endchar
        </CharString>
        <CharString name="Wgrave">
          298 callsubr
          64 150 hstem
          40 849 vstem
          388 878 86 callsubr
          -58 -64 -81 callgsubr
          endchar
        </CharString>
        <CharString name="X">
          40 21 -21 hstem
          42 516 vstem
          260 340 rmoveto
          -218 -340 rlineto
          72 hlineto
          181 287 191 -287 rlineto
          72 hlineto
          -229 340 204 334 rlineto
          -72 hlineto
          -167 -278 -167 278 rlineto
          -72 hlineto
          endchar
        </CharString>
        <CharString name="Y">
          20 21 -21 hstem
          258 62 vstem
          479 674 -10 callgsubr
        </CharString>
        <CharString name="Yacute">
          20 21 -21 728 150 hstem
          258 62 vstem
          463 878 95 callgsubr
          144 -54 -10 callgsubr
        </CharString>
        <CharString name="Ycircumflex">
          20 21 -21 728 150 -43 43 hstemhm
          258 62 hintmask 10110000
          289 835 rmoveto
          hintmask 11010000
          -22 callsubr
          276 -54 -10 callgsubr
        </CharString>
        <CharString name="Ydieresis">
          20 21 -21 761 86 hstemhm
          154 86 18 62 18 86 vstemhm
          381 761 -27 callgsubr
          282 -87 rmoveto
          -53 -99 rlineto
          -129 -241 -8 -19 0 vvcurveto
          0 -7 19 -128 241 vhcurveto
          -53 99 rlineto
          -71 hlineto
          hintmask 11010000
          228 -422 rlineto
          -252 62 252 vlineto
          230 422 rlineto
          endchar
        </CharString>
        <CharString name="Ygrave">
          20 21 -21 729 150 hstem
          258 62 vstem
          330 729 126 callgsubr
          204 -55 -10 callgsubr
        </CharString>
        <CharString name="Z">
          405 callsubr
          hstem
          50 455 vstem
          490 674 68 callgsubr
          endchar
        </CharString>
        <CharString name="Zacute">
          405 callsubr
          55 150 hstem
          50 455 vstem
          261 729 -14 callgsubr
          127 -205 68 callgsubr
          endchar
        </CharString>
        <CharString name="Zcaron">
          405 callsubr
          55 150 hstem
          50 455 vstem
          490 674 68 callgsubr
          -185 110 -41 callsubr
          endchar
        </CharString>
        <CharString name="Zdotaccent">
          405 callsubr
          90 86 hstem
          239 86 vstem
          490 674 68 callgsubr
          -251 188 rmoveto
          -24 19 -19 24 -63 callgsubr
          vhcurveto
          endchar
        </CharString>
        <CharString name="a">
          64 callsubr
          315 callsubr
          hintmask 10111100
          355 241 -88 callgsubr
          hintmask 01111100
          -16 callgsubr
        </CharString>
        <CharString name="aacute">
          64 callsubr
          47 150 315 callsubr
          hintmask 10111110
          414 712 95 callgsubr
          69 -321 -88 callgsubr
          hintmask 01111110
          -16 callgsubr
        </CharString>
        <CharString name="abreve">
          64 callsubr
          43 48 hstemhm
          50 65 -23 387 callsubr
          -47 61 hintmask 1011101100000000
          350 711 12 callsubr
          hintmask 1011110010000000
          -47 -470 -88 callgsubr
          hintmask 0111110010000000
          -16 callgsubr
        </CharString>
        <CharString name="acircumflex">
          64 callsubr
          46 150 315 callsubr
          hintmask 10111110
          253 668 rmoveto
          -22 callsubr
          188 -320 -88 callgsubr
          hintmask 01111110
          -16 callgsubr
        </CharString>
        <CharString name="acute">
          300 callgsubr
          110 183 vstem
          110 648 -14 callgsubr
          endchar
        </CharString>
        <CharString name="adieresis">
          64 callsubr
          76 86 hstemhm
          50 65 -1 86 98 86 -29 61 hintmask 1011101100000000
          341 591 -27 callgsubr
          hintmask 1011010010000000
          198 -350 -88 callgsubr
          hintmask 0111010010000000
          -16 callgsubr
        </CharString>
        <CharString name="ae">
          262 -5 59 172 56 -43 59 158 57 hstemhm
          55 64 241 62 297 63 hintmask 11011110
          778 226 rmoveto
          3 15 1 24 10 vvcurveto
          151 -68 87 -131 -76 -63 -32 -61 -40 vhcurveto
          61 -24 -54 34 -91 hhcurveto
          -50 -58 -15 -22 -35 hvcurveto
          -63 vlineto
          26 38 57 16 47 hhcurveto
          95 31 -51 -86 hvcurveto
          hintmask 10111110
          394 callsubr
          91 66 43 64 26 hvcurveto
          -63 40 78 -44 93 hhcurveto
          43 56 11 19 38 hvcurveto
          62 vlineto
          -24 -36 -57 -10 -41 hhcurveto
          hintmask 11011110
          -100 -79 58 115 -10 hvcurveto
          159 230 rmoveto
          77 61 -49 -102 hvcurveto
          -23 -297 vlineto
          121 11 70 53 78 hhcurveto
          -221 -278 rmoveto
          -77 -61 -47 -71 -73 -36 37 53 vhcurveto
          hintmask 10111110
          64 55 31 104 vhcurveto
          82 hlineto
          endchar
        </CharString>
        <CharString name="agrave">
          64 callsubr
          47 150 315 callsubr
          hintmask 10111110
          282 562 126 callgsubr
          128 -321 -88 callgsubr
          hintmask 01111110
          -16 callgsubr
        </CharString>
        <CharString name="amacron">
          64 callsubr
          99 45 315 callsubr
          hintmask 10111110
          376 659 297 callgsubr
          -21 -373 -88 callgsubr
          hintmask 01111110
          -16 callgsubr
        </CharString>
        <CharString name="ampersand">
          133 -8 60 -31 -21 631 60 hstemhm
          69 64 1 65 231 64 55 61 hintmask 10110110
          309 52 rmoveto
          -101 -75 46 76 64 56 34 83 35 hvcurveto
          31 -30 84 -76 96 -88 rrcurveto
          -40 -43 -60 -21 -71 hhcurveto
          hintmask 01101110
          3 579 rmoveto
          81 37 -53 -55 -65 -48 -41 -96 -43 hvcurveto
          -74 77 -13 33 43 vvcurveto
          67 49 37 64 vhcurveto
          380 -631 rmoveto
          -128 118 25 41 15 48 6 52 rlinecurve
          -61 hlineto
          -4 -38 -10 -34 -16 -28 -86 79 -71 65 -33 30 rrcurveto
          124 54 41 62 73 vvcurveto
          91 -72 78 -108 -112 -68 -69 -94 -58 25 -47 71 -75 vhcurveto
          hintmask 10110110
          -100 -41 -61 -51 -82 vvcurveto
          -108 100 -74 143 95 71 30 50 49 vhcurveto
          hintmask 01110110
          77 -72 rlineto
          endchar
        </CharString>
        <CharString name="aogonek">
          -74 -237 48 184 59 -38 -21 26 -21 239 59 159 58 hstemhm
          50 64 135 56 50 61 hintmask 1100111110000000
          355 239 rmoveto
          -79 vlineto
          -55 -55 -51 -77 -73 -36 37 53 64 55 31 104 vhcurveto
          143 81 rmoveto
          122 -52 73 -134 -50 -58 -15 -22 -35 vhcurveto
          -63 vlineto
          26 38 57 16 47 hhcurveto
          95 31 -51 -86 hvcurveto
          394 callsubr
          60 53 28 40 33 hvcurveto
          hintmask 1010111110000000
          -47 204 callgsubr
          hintmask 1001111110000000
          54 49 42 62 28 vhcurveto
          endchar
        </CharString>
        <CharString name="approxequal">
          65 171 57 24 56 62 57 24 56 hstemhm
          58 508 hintmask 10101000
          519 288 428 callsubr
          hintmask 11101000
          167 callsubr
          hintmask 10101000
          295 callgsubr
          -47 231 428 callsubr
          hintmask 10111000
          167 callsubr
          hintmask 10101000
          295 callgsubr
          endchar
        </CharString>
        <CharString name="aring">
          64 callsubr
          37 45 107 45 hstemhm
          50 65 40 45 107 45 3 61 hintmask 1011111110000000
          253 704 52 callsubr
          hintmask 1011111101000000
          102 -311 -88 callgsubr
          hintmask 0111111101000000
          -16 callgsubr
        </CharString>
        <CharString name="asciicircum">
          -107 558 36 hstem
          48 357 vstem
          405 332 rmoveto
          -135 262 rlineto
          -82 hlineto
          -140 -262 rlineto
          64 hlineto
          116 226 113 -226 rlineto
          endchar
        </CharString>
        <CharString name="asciitilde">
          25 195 57 24 56 hstemhm
          38 508 hintmask 10100000
          499 312 428 callsubr
          hintmask 11100000
          167 callsubr
          hintmask 10100000
          295 callgsubr
          endchar
        </CharString>
        <CharString name="asterisk">
          -179 504 170 hstem
          164 50 vstem
          226 504 rmoveto
          9 12 1 4 12 hvcurveto
          92 31 -16 47 -92 -29 -16 -5 -12 -7 -8 -9 rlinecurve
          4 11 3 13 17 vvcurveto
          96 -50 -96 vlineto
          -18 3 -14 6 -10 vhcurveto
          -9 7 -11 7 -17 6 -92 30 rcurveline
          -15 -48 91 -30 rlineto
          -4 12 10 -1 9 hhcurveto
          5 4 0 1 4 hvcurveto
          -11 -6 -10 -8 -11 -15 -57 -78 rcurveline
          41 -29 57 77 11 15 5 13 1 12 rlinecurve
          2 -11 5 -13 11 -15 57 -78 rcurveline
          40 30 -56 78 -10 14 -10 9 -11 5 rlinecurve
          endchar
        </CharString>
        <CharString name="at">
          326 -155 55 123 54 -51 51 275 55 137 53 hstemhm
          65 62 129 61 235 47 -32 53 159 57 hintmask 1101111101000000
          416 77 rmoveto
          -60 -39 47 71 82 49 75 77 74 29 -43 -67 10 hvcurveto
          -2 -21 -2 -17 -17 vvcurveto
          -71 -25 -57 -39 -54 hhcurveto
          158 -135 rmoveto
          -33 -56 -57 -9 -59 hhcurveto
          -139 -136 93 203 208 174 140 181 166 131 -102 -185 hvcurveto
          hintmask 1011111101000000
          -106 -49 -74 -60 -56 -15 42 58 17 1 19 2 19 vhcurveto
          hintmask 1101111011000000
          18 169 rlineto
          -53 hlineto
          -1 -20 -1 -19 -1 -17 rrcurveto
          39 -24 -37 23 -57 hhcurveto
          -111 -79 -95 -113 -99 57 -77 98 64 49 33 50 33 hvcurveto
          hintmask 1011111011000000
          -39 11 27 -41 71 hhcurveto
          76 94 69 165 209 -159 128 -193 -230 -189 -166 -236 -203 127 -147 208 51 70 6 26 49 hvcurveto
          endchar
        </CharString>
        <CharString name="atilde">
          64 callsubr
          80 49 -3 49 315 callsubr
          hintmask 10111011
          368 687 147 callgsubr
          hintmask 10110111
          -40 callgsubr
          hintmask 10111011
          35 callsubr
          -55 -418 -88 callgsubr
          hintmask 01111011
          -16 callgsubr
        </CharString>
        <CharString name="b">
          -1 353 callgsubr
          hstemhm
          80 61 309 64 hintmask 10111000
          300 50 rmoveto
          -73 -86 44 162 158 95 43 58 86 70 -69 -141 -117 -64 -80 -86 hvcurveto
          -159 657 rmoveto
          -61 hlineto
          hintmask 01111000
          -707 61 vlineto
          hintmask 10111000
          74 vlineto
          -48 31 50 -34 76 hhcurveto
          142 74 121 135 157 -90 110 -128 -69 -52 -33 -51 -34 hvcurveto
          endchar
        </CharString>
        <CharString name="backslash">
          -174 -103 810 hstem
          -30 428 vstem
          32 707 rmoveto
          -62 hlineto
          366 -810 rlineto
          62 hlineto
          endchar
        </CharString>
        <CharString name="bar">
          447 callgsubr
          80 -194 rmoveto
          54 889 -54 hlineto
          endchar
        </CharString>
        <CharString name="braceleft">
          397 callsubr
          50 62 36 64 -41 64 hintmask 11110100
          112 264 rmoveto
          86 14 37 58 68 vvcurveto
          hintmask 11101000
          62 -23 46 61 vvcurveto
          42 19 37 47 10 13 -3 -6 11 vhcurveto
          62 vlineto
          5 -14 -14 2 -14 hhcurveto
          -64 -58 -51 -90 hvcurveto
          hintmask 11110100
          -55 23 -47 -49 vvcurveto
          -61 -28 -51 -61 -11 vhcurveto
          -2 -11 -12 0 -9 hhcurveto
          -61 vlineto
          9 15 0 -2 8 hvcurveto
          65 -16 24 -48 -61 -49 -23 -47 -55 vvcurveto
          hintmask 11101000
          -90 58 -51 64 14 14 2 5 14 vhcurveto
          62 vlineto
          -6 -11 -13 -3 -10 hhcurveto
          -47 -19 37 42 hvcurveto
          61 23 46 62 vvcurveto
          hintmask 11110100
          68 -37 59 -86 14 vhcurveto
          endchar
        </CharString>
        <CharString name="braceright">
          397 callsubr
          87 64 -41 64 36 62 hintmask 11110100
          210 264 rmoveto
          -86 -14 -37 -59 -68 vvcurveto
          hintmask 11101000
          -62 23 -46 -61 vvcurveto
          -42 -19 -37 -47 -10 -13 3 6 -11 vhcurveto
          -62 vlineto
          -5 14 14 -2 14 hhcurveto
          64 58 51 90 hvcurveto
          hintmask 11110100
          55 -23 47 49 vvcurveto
          61 24 48 65 16 vhcurveto
          2 8 15 0 9 hhcurveto
          61 vlineto
          -9 -12 0 2 -11 hvcurveto
          -61 11 -28 51 61 49 23 47 55 vvcurveto
          hintmask 11101000
          90 -58 51 -64 -14 -14 -2 -5 -14 vhcurveto
          -62 vlineto
          6 11 13 3 10 hhcurveto
          47 19 -37 -42 hvcurveto
          -61 -23 -46 -62 vvcurveto
          hintmask 11110100
          -68 37 -58 86 -14 vhcurveto
          endchar
        </CharString>
        <CharString name="bracketleft">
          -264 -179 56 775 55 389 callgsubr
          296 652 rmoveto
          55 -216 -886 216 56 -154 775 vlineto
          endchar
        </CharString>
        <CharString name="bracketright">
          -264 -179 56 775 55 hstem
          154 62 vstem
          216 707 rmoveto
          -216 -55 154 -775 -154 -56 216 hlineto
          endchar
        </CharString>
        <CharString name="breve">
          -160 645 48 hstem
          45 387 callsubr
          vstem
          45 798 13 callgsubr
          endchar
        </CharString>
        <CharString name="brokenbar">
          447 callgsubr
          134 366 rmoveto
          329 -54 -329 vlineto
          54 -560 rmoveto
          329 -54 -329 vlineto
          endchar
        </CharString>
        <CharString name="bullet">
          -105 223 266 hstem
          95 265 vstem
          95 356 rmoveto
          -75 56 -58 77 74 58 58 75 75 -58 58 -75 -76 -56 -58 -75 vhcurveto
          endchar
        </CharString>
        <CharString name="c">
          353 callsubr
          hstem
          45 64 vstem
          109 251 rmoveto
          162 callgsubr
          vhcurveto
          62 vlineto
          -42 callgsubr
          hvcurveto
          endchar
        </CharString>
        <CharString name="cacute">
          353 callsubr
          45 150 hstem
          45 64 vstem
          265 561 -14 callgsubr
          -258 -460 rmoveto
          162 callgsubr
          vhcurveto
          62 vlineto
          -42 callgsubr
          hvcurveto
          endchar
        </CharString>
        <CharString name="caron">
          300 callgsubr
          49 301 vstem
          231 648 -41 callsubr
          endchar
        </CharString>
        <CharString name="ccaron">
          353 callsubr
          46 150 hstem
          45 64 vstem
          417 489 rmoveto
          -42 callgsubr
          162 callgsubr
          hvcurveto
          -110 135 -41 callsubr
          endchar
        </CharString>
        <CharString name="ccedilla">
          -88 -248 49 187 59 410 59 hstem
          45 64 166 56 vstem
          109 251 rmoveto
          162 callgsubr
          vhcurveto
          62 vlineto
          -42 callgsubr
          hvcurveto
          222 -372 30 callsubr
        </CharString>
        <CharString name="ccircumflex">
          353 callsubr
          46 150 hstem
          45 64 vstem
          417 489 rmoveto
          -42 callgsubr
          162 callgsubr
          hvcurveto
          -180 285 -57 callsubr
          endchar
        </CharString>
        <CharString name="cdotaccent">
          353 callsubr
          79 86 hstem
          45 64 150 86 vstem
          109 251 rmoveto
          162 callgsubr
          vhcurveto
          62 vlineto
          -42 callgsubr
          hvcurveto
          150 387 rmoveto
          -24 19 -19 24 -63 callgsubr
          vhcurveto
          endchar
        </CharString>
        <CharString name="cedilla">
          -160 -248 49 hstem
          215 56 vstem
          271 -121 30 callsubr
        </CharString>
        <CharString name="cent">
          -115 -111 162 -58 58 402 161 hstemhm
          50 64 158 55 hintmask 01111000
          405 492 rmoveto
          -28 12 -26 6 -24 1 rrcurveto
          103 -55 -104 vlineto
          -144 -18 -78 -119 -121 vvcurveto
          -125 76 -115 146 -18 vhcurveto
          hintmask 10111000
          -105 55 vlineto
          hintmask 01111000
          104 vlineto
          25 1 26 6 27 11 rrcurveto
          62 vlineto
          -14 -25 -34 -8 -28 hhcurveto
          -138 -66 94 106 107 74 95 129 28 32 -8 -15 28 hvcurveto
          endchar
        </CharString>
        <CharString name="circumflex">
          300 callgsubr
          49 301 vstem
          168 798 -57 callsubr
          endchar
        </CharString>
        <CharString name="colon">
          -338 -1 101 219 101 hstem
          60 102 vstem
          60 369 rmoveto
          53 callsubr
          -320 vmoveto
          53 callsubr
          endchar
        </CharString>
        <CharString name="comma">
          -353 -122 214 hstem
          -8 181 vstem
          -8 -122 402 callsubr
        </CharString>
        <CharString name="commaaccent">
          -160 316 callsubr
          hstem
          109 164 vstem
          109 -238 286 callgsubr
        </CharString>
        <CharString name="copyright">
          220 -9 58 91 54 281 54 95 58 hstem
          45 59 120 58 396 57 vstem
          45 336 rmoveto
          -188 157 -157 188 188 157 157 188 188 -157 158 -188 -188 -157 -158 -188 vhcurveto
          59 hmoveto
          157 130 131 157 157 130 -131 -157 -157 -130 -130 -157 -157 -130 130 157 vhcurveto
          178 -3 rmoveto
          82 54 60 84 21 34 -8 -15 22 vhcurveto
          57 vlineto
          15 -26 -34 5 -21 hhcurveto
          -125 -67 -98 -97 -100 66 -94 126 27 36 9 13 18 hvcurveto
          57 vlineto
          -14 -16 -32 -11 -29 hhcurveto
          -85 -53 62 77 hvcurveto
          endchar
        </CharString>
        <CharString name="currency">
          -24 100 52 322 52 hstem
          54 54 320 54 vstem
          54 309 rmoveto
          -51 14 -44 26 -35 vhcurveto
          -58 -58 41 -41 59 59 rlineto
          -25 34 44 -14 50 hhcurveto
          50 46 15 27 36 hvcurveto
          63 -62 41 41 -63 62 rlineto
          28 36 17 46 51 vvcurveto
          50 -15 44 -25 35 vhcurveto
          58 58 -41 41 -58 -58 rlineto
          25 -35 -44 15 -50 hhcurveto
          -51 -46 -16 -28 -37 hvcurveto
          -61 62 -41 -41 61 -62 rlineto
          -27 -36 -16 -46 -50 vvcurveto
          54 4 rmoveto
          93 67 68 93 93 67 -69 -93 -93 -67 -67 -93 -93 -67 68 93 vhcurveto
          endchar
        </CharString>
        <CharString name="d">
          -5 353 callgsubr
          hstemhm
          45 64 309 61 hintmask 10111000
          131 callsubr
          159 657 rmoveto
          -276 vlineto
          121 callsubr
          hintmask 01111000
          -74 61 707 vlineto
          endchar
        </CharString>
        <CharString name="dagger">
          -46 21 -21 442 56 hstem
          224 57 vstem
          469 498 rmoveto
          -188 176 -57 -176 436 callgsubr
          -442 57 442 188 hlineto
          endchar
        </CharString>
        <CharString name="daggerdbl">
          -46 21 -21 189 56 197 56 hstem
          224 57 vstem
          469 442 rmoveto
          56 -188 176 -57 -176 436 callgsubr
          -197 436 callgsubr
          -189 57 189 188 56 -188 197 vlineto
          endchar
        </CharString>
        <CharString name="dcaron">
          77 353 callgsubr
          5 187 hstemhm
          45 64 309 61 hintmask 10101100
          131 callsubr
          159 381 rmoveto
          121 callsubr
          hintmask 01011100
          -74 61 707 -61 vlineto
          209 hmoveto
          -88 -187 rlineto
          54 hlineto
          110 187 rlineto
          endchar
        </CharString>
        <CharString name="dcroat">
          -5 353 callgsubr
          78 48 hstemhm
          45 64 309 61 hintmask 10111100
          131 callsubr
          295 591 rmoveto
          -75 66 -61 -66 -205 -48 205 -162 hlineto
          121 callsubr
          hintmask 01111100
          -74 61 593 75 vlineto
          endchar
        </CharString>
        <CharString name="degree">
          -228 408 47 172 47 hstem
          30 53 166 53 vstem
          30 539 rmoveto
          -79 55 -52 79 79 59 56 79 79 -55 52 -79 -79 -59 -56 -79 vhcurveto
          53 2 rmoveto
          48 33 38 48 48 37 -38 -48 -48 -33 -38 -48 -48 -37 38 48 vhcurveto
          endchar
        </CharString>
        <CharString name="dieresis">
          -160 683 86 hstem
          65 86 98 86 vstem
          65 726 -28 callsubr
          endchar
        </CharString>
        <CharString name="divide">
          -16 226 92 vstem
          226 519 309 callsubr
          -166 -207 rmoveto
          409 callsubr
          166 -207 309 callsubr
          endchar
        </CharString>
        <CharString name="dollar">
          -58 -7 60 -58 58 566 61 hstemhm
          58 64 78 55 -4 55 78 63 hintmask 10110110
          408 650 rmoveto
          -29 15 -37 9 -36 4 rrcurveto
          103 -55 -101 vlineto
          -103 -6 -90 -61 -113 vvcurveto
          -106 82 -42 81 -35 vhcurveto
          82 -35 81 -29 -80 vvcurveto
          -79 -57 -41 -93 -67 -68 23 30 -39 vhcurveto
          hintmask 01111010
          -69 vlineto
          39 -23 50 -15 51 -4 rrcurveto
          hintmask 10111010
          -102 55 100 vlineto
          108 6 84 59 116 vvcurveto
          107 -81 42 -81 35 vhcurveto
          -82 36 -81 29 81 vvcurveto
          69 57 46 90 50 58 -17 -21 31 vhcurveto
          endchar
        </CharString>
        <CharString name="dotaccent">
          -160 684 86 hstem
          157 86 vstem
          157 727 rmoveto
          -24 19 -19 24 -63 callgsubr
          vhcurveto
          endchar
        </CharString>
        <CharString name="dotlessi">
          413 callgsubr
          292 callsubr
          endchar
        </CharString>
        <CharString name="dvMatraAA_Candrabindu">
          115 callsubr
          107 52 105 93 hstemhm
          -32 62 58 94 -82 62 75 62 hintmask 11111011
          133 741 4 callsubr
          hintmask 11111101
          -45 203 -80 callgsubr
          hintmask 11111011
          -108 -365 236 callsubr
          endchar
        </CharString>
        <CharString name="dvMatraAI_Candrabindu">
          627 20 64 52 -51 60 47 58 -9 93 hstemhm
          -122 62 58 94 55 62 hintmask 11001111
          44 868 75 callsubr
          hintmask 10110111
          -451 -55 rmoveto
          39 callsubr
          -106 161 rlineto
          85 callsubr
          hintmask 11010111
          554 -12 153 callgsubr
          endchar
        </CharString>
        <CharString name="dvMatraE_Candrabindu">
          711 52 59 55 -9 93 hstemhm
          -122 62 58 94 55 62 hintmask 11011100
          -400 71 callgsubr
          443 -160 4 callsubr
          hintmask 10111100
          -45 203 -80 callgsubr
          endchar
        </CharString>
        <CharString name="dvSHA_MatraVocalicR">
          80 -201 52 728 329 callsubr
          76 62 191 62 -26 61 62 62 hintmask 10111010
          138 496 rmoveto
          48 36 43 58 59 38 -44 -55 -49 -40 -51 -41 -28 vhcurveto
          -78 42 -32 48 46 vvcurveto
          hintmask 11011010
          412 83 rmoveto
          110 55 -172 -353 hlineto
          -74 15 -61 18 -48 19 rrcurveto
          48 36 38 53 68 vvcurveto
          hintmask 10111010
          75 -60 74 -103 -96 -56 -73 -70 -62 33 -58 86 -52 vhcurveto
          -193 -115 49 -38 203 123 60 -27 77 -24 97 -22 rlinecurve
          -161 vlineto
          hintmask 11010110
          -71 -16 -52 -47 -65 vvcurveto
          -93 76 -40 90 37 44 8 14 26 vhcurveto
          54 vlineto
          -15 -28 -36 -9 -43 hhcurveto
          -69 -36 32 45 50 39 37 85 3 hvcurveto
          endchar
        </CharString>
        <CharString name="e">
          115 callgsubr
          hstem
          45 64 299 63 vstem
          408 282 -96 callsubr
        </CharString>
        <CharString name="eacute">
          110 callsubr
          441 712 95 callgsubr
          95 -280 -96 callsubr
        </CharString>
        <CharString name="ebreve">
          115 callgsubr
          46 48 hstemhm
          45 64 12 387 callsubr
          -23 63 hintmask 11111110
          379 712 12 callsubr
          hintmask 11111001
          -23 -430 -96 callsubr
        </CharString>
        <CharString name="ecaron">
          110 callsubr
          306 562 -41 callsubr
          165 -280 -96 callsubr
        </CharString>
        <CharString name="ecircumflex">
          110 callsubr
          284 669 rmoveto
          -22 callsubr
          210 -280 -96 callsubr
        </CharString>
        <CharString name="edieresis">
          115 callgsubr
          81 86 hstemhm
          45 64 37 86 98 86 -8 63 hintmask 11111110
          373 594 -27 callgsubr
          hintmask 11101001
          219 -312 -96 callsubr
        </CharString>
        <CharString name="edotaccent">
          115 callgsubr
          82 86 hstem
          45 64 130 86 83 63 vstem
          282 595 rmoveto
          -63 callgsubr
          -24 19 -19 24 hvcurveto
          126 -313 -96 callsubr
        </CharString>
        <CharString name="egrave">
          110 callsubr
          314 562 126 callgsubr
          149 -280 -96 callsubr
        </CharString>
        <CharString name="eight">
          -27 -8 58 247 58 247 58 hstemhm
          55 439 callsubr
          264 50 rmoveto
          -97 -49 54 62 67 42 63 104 1 hvcurveto
          109 1 42 -61 -61 vvcurveto
          -66 -49 -60 -102 vhcurveto
          hintmask 11101100
          -135 429 rmoveto
          66 50 57 84 89 46 -55 -66 -82 -57 -44 -74 -76 -62 37 87 vhcurveto
          hintmask 11101010
          217 -152 rmoveto
          hintmask 11101100
          72 23 43 56 71 vvcurveto
          125 -101 58 -97 -96 -101 -61 -120 -76 44 -55 73 -23 vhcurveto
          hintmask 11110010
          -77 -22 -51 -57 -84 vvcurveto
          -106 96 -64 112 117 98 66 109 vhcurveto
          hintmask 11101010
          88 -53 52 -79 20 vhcurveto
          endchar
        </CharString>
        <CharString name="ellipsis">
          102 -8 102 hstem
          30 102 148 102 148 102 cntrmask 01110000
          30 43 rmoveto
          54 callgsubr
          250 hmoveto
          54 callgsubr
          250 hmoveto
          54 callgsubr
          endchar
        </CharString>
        <CharString name="emacron">
          115 callgsubr
          101 45 hstem
          45 64 299 63 vstem
          409 659 297 callgsubr
          -1 -332 -96 callsubr
        </CharString>
        <CharString name="emdash">
          259 245 55 hstem
          60 699 vstem
          60 245 rmoveto
          699 55 -699 hlineto
          endchar
        </CharString>
        <CharString name="endash">
          -24 243 55 hstem
          60 416 vstem
          60 243 rmoveto
          416 55 -416 hlineto
          endchar
        </CharString>
        <CharString name="eng">
          -31 -194 58 157 -21 456 59 hstem
          76 61 261 62 vstem
          459 248 rmoveto
          106 vlineto
          94 -62 67 -99 -72 -57 -30 -65 -32 vhcurveto
          87 -61 -507 61 280 vlineto
          114 75 62 77 62 47 -40 -81 vhcurveto
          -335 1 -62 vlineto
          -54 -22 -20 -35 -22 -24 5 11 -24 vhcurveto
          -60 vlineto
          -9 23 19 -5 27 hhcurveto
          74 45 46 84 hvcurveto
          312 vlineto
          endchar
        </CharString>
        <CharString name="eogonek">
          -41 -238 48 188 55 -34 -21 228 56 174 57 hstemhm
          45 64 69 56 174 63 hintmask 10111111
          408 282 rmoveto
          -299 hlineto
          115 10 65 59 82 hhcurveto
          86 56 -58 -93 hvcurveto
          -40 -475 rmoveto
          -11 -15 -27 -9 -22 hhcurveto
          -42 -28 22 43 hvcurveto
          hintmask 11011111
          53 48 42 61 28 vhcurveto
          34 5 36 9 26 13 rrcurveto
          62 vlineto
          -24 -36 -60 -10 -41 hhcurveto
          -110 -74 59 114 -9 hvcurveto
          358 hlineto
          3 15 1 29 10 vvcurveto
          151 -82 82 -121 -130 -93 -97 -165 -139 85 -96 125 -18 vhcurveto
          -44 -31 -33 -45 -52 vvcurveto
          -61 43 -47 76 24 27 5 13 20 vhcurveto
          endchar
        </CharString>
        <CharString name="equal">
          399 callgsubr
          60 410 427 callgsubr
          -250 vmoveto
          409 callsubr
          endchar
        </CharString>
        <CharString name="eth">
          -54 -9 58 301 60 hstem
          39 64 301 57 vstem
          247 49 rmoveto
          -82 -62 56 97 97 63 51 74 71 58 -38 -50 35 hvcurveto
          -151 -1 -75 -62 -81 hhcurveto
          197 567 rmoveto
          56 vlineto
          -124 -64 -26 28 -28 22 -26 16 rlinecurve
          -108 hlineto
          39 -18 49 -32 46 -44 -104 -54 rcurveline
          -56 vlineto
          139 72 45 -54 38 -68 14 -83 rlinecurve
          47 -38 -57 26 -60 hhcurveto
          -102 -102 -71 -137 -112 82 -99 126 125 89 85 188 128 -48 103 -59 75 hvcurveto
          endchar
        </CharString>
        <CharString name="exclam">
          -319 -8 101 hstemhm
          69 102 -81 61 hintmask 10100000
          90 196 rmoveto
          61 478 -61 hlineto
          hintmask 11000000
          -21 -632 rmoveto
          53 callsubr
          endchar
        </CharString>
        <CharString name="exclamdown">
          -319 416 101 hstemhm
          69 102 -81 61 hintmask 11000000
          69 467 rmoveto
          -28 21 -23 29 29 23 23 28 29 -23 21 -29 -29 -21 -21 -29 vhcurveto
          hintmask 10100000
          21 -632 rmoveto
          61 478 -61 hlineto
          endchar
        </CharString>
        <CharString name="f">
          -235 155 callsubr
          vstem
          301 706 430 callsubr
          -89 184 callsubr
          116 52 -116 53 268 callsubr
        </CharString>
        <CharString name="ff">
          3 21 -21 455 52 147 58 hstem
          123 203 callsubr
          178 145 430 callsubr
          -41 -32 -13 -22 -22 hvcurveto
          19 -36 -51 16 -46 hhcurveto
          -99 184 callsubr
          177 328 callgsubr
          116 52 -116 53 268 callsubr
        </CharString>
        <CharString name="ffi">
          176 155 callsubr
          177 203 callsubr
          299 -54 252 callsubr
          -43 -33 -13 -22 -24 hvcurveto
          19 -36 -50 16 -47 hhcurveto
          -99 184 callsubr
          177 328 callgsubr
          177 -455 61 vlineto
          endchar
        </CharString>
        <CharString name="ffl">
          167 155 callsubr
          178 61 167 61 vstem
          362 507 rmoveto
          -178 53 hlineto
          67 35 27 48 43 34 -10 -15 29 vhcurveto
          -7 -20 -4 -23 -25 vvcurveto
          -239 -54 rmoveto
          -93 -52 93 328 callgsubr
          178 180 callgsubr
          -43 -33 -13 -22 -24 hvcurveto
          19 -36 -50 16 -47 hhcurveto
          -99 -48 -61 -90 hvcurveto
          endchar
        </CharString>
        <CharString name="fi">
          -62 155 callsubr
          177 61 vstem
          422 507 252 callsubr
          -94 184 callsubr
          177 -455 61 vlineto
          endchar
        </CharString>
        <CharString name="five">
          -48 -8 58 284 58 207 55 hstem
          98 62 238 64 vstem
          160 82 callgsubr
        </CharString>
        <CharString name="fl">
          -72 155 callsubr
          167 61 vstem
          123 507 rmoveto
          -93 -52 93 180 callgsubr
          -92 -49 -59 -92 hvcurveto
          endchar
        </CharString>
        <CharString name="florin">
          -203 -257 58 -29 -21 564 52 256 58 hstemhm
          -76 468 hintmask 01111000
          155 367 rmoveto
          -109 -52 100 hlineto
          -71 -398 rlineto
          hintmask 10111000
          -77 -14 -29 -39 -51 hhcurveto
          -23 -18 4 6 -16 hvcurveto
          hintmask 01111000
          -60 vlineto
          -5 15 29 -3 17 hhcurveto
          89 42 58 109 19 hvcurveto
          72 405 rlineto
          109 52 -100 hlineto
          25 140 rlineto
          77 14 29 39 51 hhcurveto
          23 18 -4 -6 16 hvcurveto
          60 vlineto
          5 -15 -29 3 -17 hhcurveto
          -89 -42 -58 -109 -19 hvcurveto
          endchar
        </CharString>
        <CharString name="four">
          -26 21 -21 164 55 400 35 hstem
          348 60 vstem
          108 169 callgsubr
        </CharString>
        <CharString name="foursuperior">
          -184 491 47 233 50 hstem
          231 50 vstem
          88 538 rmoveto
          143 233 rlineto
          -233 vlineto
          115 hmoveto
          -65 283 -74 hlineto
          -172 -283 rlineto
          -47 196 -99 50 99 65 vlineto
          endchar
        </CharString>
        <CharString name="fraction">
          268 callgsubr
        </CharString>
        <CharString name="g">
          200 callgsubr
          hstem
          45 64 299 61 vstem
          257 70 -81 callsubr
        </CharString>
        <CharString name="gbreve">
          200 callgsubr
          44 48 hstemhm
          45 64 22 387 callsubr
          -33 61 hintmask 11111110
          389 712 12 callsubr
          hintmask 11111001
          -184 -642 -81 callsubr
        </CharString>
        <CharString name="gcircumflex">
          200 callgsubr
          47 150 hstem
          45 64 299 61 vstem
          268 669 rmoveto
          -22 callsubr
          75 -492 -81 callsubr
        </CharString>
        <CharString name="gdotaccent">
          200 callgsubr
          80 86 hstem
          45 64 148 86 65 61 vstem
          300 595 rmoveto
          -63 callgsubr
          -24 19 -19 24 hvcurveto
          -43 -525 -81 callsubr
        </CharString>
        <CharString name="germandbls">
          -34 -7 57 -29 -21 631 59 hstemhm
          80 62 139 66 21 62 2 62 hintmask 10111010
          252 3 rmoveto
          -8 26 22 -2 30 hhcurveto
          108 56 61 77 hvcurveto
          127 -147 23 75 54 83 25 106 vvcurveto
          hintmask 01111100
          81 -63 68 -102 -105 -80 -55 -130 vhcurveto
          -505 62 505 vlineto
          87 43 39 75 63 45 -35 -55 vhcurveto
          -84 -87 -20 -85 vvcurveto
          hintmask 10111010
          -108 151 -21 -97 vvcurveto
          -44 -38 -32 -61 -34 -21 5 12 -26 vhcurveto
          endchar
        </CharString>
        <CharString name="grave">
          300 callgsubr
          110 183 vstem
          191 798 86 callsubr
          endchar
        </CharString>
        <CharString name="greater">
          -50 120 442 hstem
          50 400 vstem
          450 371 rmoveto
          -400 191 rlineto
          -65 vlineto
          0 239 -110 94 -45 vhcurveto
          -96 -47 -237 -110 0 vvcurveto
          -65 vlineto
          400 191 rlineto
          endchar
        </CharString>
        <CharString name="greaterequal">
          -21 130 55 hstem
          464 20 vstem
          60 130 427 callgsubr
          364 vmoveto
          -60 vlineto
          404 -89 -404 -90 rlineto
          -60 vlineto
          424 101 rlineto
          97 vlineto
          endchar
        </CharString>
        <CharString name="guillemotleft">
          -110 91 324 hstem
          27 397 vstem
          247 415 174 callsubr
          324 162 174 callsubr
          endchar
        </CharString>
        <CharString name="guillemotright">
          -107 91 324 hstem
          26 397 vstem
          96 415 173 callsubr
          27 162 173 callsubr
          endchar
        </CharString>
        <CharString name="guilsinglleft">
          -280 91 324 hstem
          30 220 vstem
          250 415 174 callsubr
          endchar
        </CharString>
        <CharString name="guilsinglright">
          -283 91 324 hstem
          30 220 vstem
          100 415 173 callsubr
          endchar
        </CharString>
        <CharString name="h">
          -31 303 callsubr
          226 callgsubr
          137 707 rmoveto
          -61 -707 -31 callsubr
          -73 -57 -31 -64 -31 vhcurveto
          endchar
        </CharString>
        <CharString name="hbar">
          -31 303 callsubr
          78 48 226 callgsubr
          137 593 rmoveto
          195 48 -195 66 -61 -66 -75 -48 75 -593 -31 callsubr
          -73 -57 -31 -64 -31 vhcurveto
          endchar
        </CharString>
        <CharString name="hcircumflex">
          -31 303 callsubr
          247 150 226 callgsubr
          195 762 rmoveto
          -6 callgsubr
          -63 hlineto
          51 callgsubr
          rlineto
          29 -162 rmoveto
          -61 -707 -31 callsubr
          -73 -57 -31 -64 -31 vhcurveto
          endchar
        </CharString>
        <CharString name="hungarumlaut">
          300 callgsubr
          34 332 vstem
          182 648 67 callgsubr
          endchar
        </CharString>
        <CharString name="hyphen">
          267 callgsubr
        </CharString>
        <CharString name="i">
          413 callgsubr
          627 85 hstemhm
          68 85 -73 61 344 callsubr
          hintmask 11100000
          -12 162 125 callsubr
          endchar
        </CharString>
        <CharString name="iacute">
          413 callgsubr
          562 150 292 callsubr
          9 55 -14 callgsubr
          endchar
        </CharString>
        <CharString name="ibreve">
          413 callgsubr
          559 48 hstem
          -44 52 72 61 73 52 vstem
          -44 712 13 callgsubr
          72 452 callgsubr
        </CharString>
        <CharString name="icircumflex">
          413 callgsubr
          562 150 hstem
          80 61 vstem
          80 712 -57 callsubr
          -63 452 callgsubr
        </CharString>
        <CharString name="idieresis">
          413 callgsubr
          596 86 hstemhm
          -24 86 18 61 19 86 344 callsubr
          hintmask 11111000
          -104 132 -28 callsubr
          endchar
        </CharString>
        <CharString name="igrave">
          413 callgsubr
          561 150 292 callsubr
          -48 204 86 callsubr
          endchar
        </CharString>
        <CharString name="ij">
          -126 -194 58 157 -21 627 85 hstemhm
          64 85 -73 61 147 85 -72 61 hintmask 11101010
          76 355 callgsubr
          hintmask 11110010
          -12 162 125 callsubr
          106 -849 42 callgsubr
          hintmask 11101100
          114 789 125 callsubr
          endchar
        </CharString>
        <CharString name="imacron">
          413 callgsubr
          614 45 292 callsubr
          163 107 278 callsubr
          endchar
        </CharString>
        <CharString name="infinity">
          276 185 54 218 53 hstem
          50 60 615 61 vstem
          110 351 rmoveto
          60 39 46 73 69 48 -58 -52 38 vhcurveto
          -51 -36 -53 -58 -65 hhcurveto
          -73 -40 54 59 hvcurveto
          306 -44 rmoveto
          -68 54 54 -54 90 hhcurveto
          108 64 73 94 92 -61 67 -107 -87 -59 -56 -70 -53 hvcurveto
          68 -52 -58 57 -87 hhcurveto
          -108 -64 -71 -93 -94 59 -67 107 86 62 56 66 52 hvcurveto
          309 41 rmoveto
          -62 -37 -47 -74 -70 -42 50 58 -43 vhcurveto
          51 35 50 59 67 hhcurveto
          73 41 -52 -57 hvcurveto
          endchar
        </CharString>
        <CharString name="iogonek">
          -339 -237 48 210 -21 627 85 hstemhm
          -26 56 38 85 -73 61 hintmask 11111000
          110 627 rmoveto
          24 19 18 24 24 -19 19 -24 -24 -18 -19 -24 -24 18 -18 24 hvcurveto
          hintmask 11110100
          31 -120 rmoveto
          -61 -491 hlineto
          214 callgsubr
          54 49 42 62 28 hvcurveto
          endchar
        </CharString>
        <CharString name="itfLogo">
          1088 21 -21 224 185 40 185 hstem
          147 196 40 196 40 196 40 196 40 196 40 196 vstem
          147 hmoveto
          174 callgsubr
          236 -634 rmoveto
          174 callgsubr
          236 -634 rmoveto
          174 callgsubr
          -410 vmoveto
          196 185 -196 hlineto
          endchar
        </CharString>
        <CharString name="itfStar">
          112 65 625 hstem
          5 658 vstem
          663 452 rmoveto
          -28 -200 -6 -2 -34 hvcurveto
          -66 246 -8 -27 -53 -188 -8 -31 rlinecurve
          -261 8 25 -15 168 -108 28 -17 rlinecurve
          -96 -247 24 20 152 128 29 20 rlinecurve
          204 -168 -11 28 -71 189 -12 30 rlinecurve
          endchar
        </CharString>
        <CharString name="itilde">
          413 callgsubr
          590 49 -3 49 hstemhm
          80 61 344 callsubr
          151 175 147 callgsubr
          hintmask 10110000
          -40 callgsubr
          hintmask 11010000
          198 callsubr
        </CharString>
        <CharString name="j">
          -344 -194 58 763 85 hstemhm
          67 85 -72 61 hintmask 11010000
          -47 -180 42 callgsubr
          hintmask 11100000
          114 789 125 callsubr
          endchar
        </CharString>
        <CharString name="jcircumflex">
          -344 -194 58 698 150 hstem
          80 61 vstem
          80 712 -57 callsubr
          -190 -892 42 callgsubr
          endchar
        </CharString>
        <CharString name="k">
          -98 21 -21 hstem
          76 61 vstem
          76 hmoveto
          61 707 -61 hlineto
          150 -441 161 callgsubr
        </CharString>
        <CharString name="kgreenlandic">
          -98 21 -21 hstem
          76 61 vstem
          76 355 callgsubr
          150 -241 161 callgsubr
        </CharString>
        <CharString name="l">
          413 callgsubr
          260 callgsubr
          707 -61 hlineto
          endchar
        </CharString>
        <CharString name="lacute">
          413 callgsubr
          762 150 hstem
          80 61 vstem
          86 762 -14 callgsubr
          -108 -912 rmoveto
          61 707 -61 hlineto
          endchar
        </CharString>
        <CharString name="lcaron">
          -306 21 -21 520 187 260 callgsubr
          707 -61 hlineto
          131 -187 286 callgsubr
        </CharString>
        <CharString name="ldot">
          -209 21 -21 309 101 hstem
          76 61 87 102 vstem
          76 hmoveto
          61 707 -61 hlineto
          148 -348 rmoveto
          53 callsubr
          endchar
        </CharString>
        <CharString name="less">
          -50 120 442 hstem
          60 400 vstem
          60 311 rmoveto
          400 -191 rlineto
          65 vlineto
          0 -237 110 -96 47 vhcurveto
          94 45 239 110 0 vvcurveto
          65 vlineto
          -400 -191 rlineto
          endchar
        </CharString>
        <CharString name="lessequal">
          -21 130 55 hstem
          55 20 vstem
          55 130 427 callgsubr
          424 364 rmoveto
          -424 -101 rlineto
          -97 vlineto
          424 -101 rlineto
          60 vlineto
          -404 90 404 89 rlineto
          endchar
        </CharString>
        <CharString name="logicalnot">
          -25 353 59 hstem
          439 61 vstem
          500 166 rmoveto
          246 -480 -59 419 -187 vlineto
          endchar
        </CharString>
        <CharString name="longs">
          -336 21 -21 710 58 hstem
          76 61 vstem
          254 762 430 callsubr
          -89 -48 -61 -90 hvcurveto
          -617 61 616 268 callsubr
        </CharString>
        <CharString name="lozenge">
          -7 0 54 566 54 hstem
          58 437 vstem
          374 242 rmoveto
          -66 -125 -32 -63 0 vvcurveto
          -97 188 -49 95 49 95 97 188 rlineto
          0 32 -63 66 -125 vhcurveto
          49 -95 rlineto
          -108 337 rmoveto
          -82 hlineto
          -175 -337 175 -337 rlineto
          82 hlineto
          180 337 rlineto
          endchar
        </CharString>
        <CharString name="lslash">
          -282 21 -21 hstem
          101 61 vstem
          243 483 rmoveto
          -81 -58 rlineto
          282 -61 -326 vlineto
          -66 -47 rlineto
          -66 vlineto
          66 47 rlineto
          -315 61 359 vlineto
          81 58 rlineto
          endchar
        </CharString>
        <CharString name="m">
          247 303 callsubr
          hstem
          76 61 239 61 239 61 cntrmask 00111000
          137 507 384 callgsubr
          280 hlineto
          114 70 62 63 73 33 -42 -79 vhcurveto
          -335 61 280 vlineto
          114 70 62 63 73 33 -42 -79 vhcurveto
          -335 61 354 vlineto
          90 -45 71 -113 -62 -56 -32 -68 -32 vhcurveto
          60 -17 -47 40 -86 hhcurveto
          -62 -51 -29 -62 -29 hvcurveto
          endchar
        </CharString>
        <CharString name="macron">
          267 callsubr
        </CharString>
        <CharString name="minus">
          -16 312 56 hstem
          60 424 vstem
          60 312 rmoveto
          409 callsubr
          endchar
        </CharString>
        <CharString name="multiply">
          -79 170 347 hstem
          63 354 vstem
          417 477 rmoveto
          -40 40 -137 -136 -137 135 -40 -40 137 -135 -132 -131 40 -40 132 131 132 -131 40 40 -132 131 rlineto
          endchar
        </CharString>
        <CharString name="n">
          -31 303 callsubr
          226 callgsubr
          137 507 rmoveto
          -61 -507 -31 callsubr
          -72 -57 -30 -65 -32 vhcurveto
          endchar
        </CharString>
        <CharString name="nacute">
          -31 303 callsubr
          47 150 226 callgsubr
          451 712 95 callgsubr
          -186 -55 rmoveto
          -61 -507 -31 callsubr
          -72 -57 -30 -65 -32 vhcurveto
          endchar
        </CharString>
        <CharString name="napostrophe">
          -8 303 callsubr
          -20 200 hstemhm
          99 61 261 61 hintmask 10111000
          51 695 rmoveto
          -74 -200 rlineto
          42 hlineto
          107 200 rlineto
          34 -188 384 callgsubr
          280 hlineto
          hintmask 11011000
          114 75 62 77 62 47 -40 -81 vhcurveto
          -335 61 354 vlineto
          94 -62 67 -99 -72 -57 -30 -65 -32 vhcurveto
          endchar
        </CharString>
        <CharString name="ncaron">
          -31 303 callsubr
          47 150 226 callgsubr
          316 562 -41 callsubr
          -116 -55 rmoveto
          -61 -507 -31 callsubr
          -72 -57 -30 -65 -32 vhcurveto
          endchar
        </CharString>
        <CharString name="nine">
          -64 -8 58 186 57 311 58 hstem
          40 64 288 60 vstem
          392 361 rmoveto
          -38 -30 -48 -30 -63 hhcurveto
          -88 -59 53 104 95 54 59 82 121 31 -118 -106 hvcurveto
          -329 -369 rmoveto
          -13 37 34 -6 41 hhcurveto
          199 78 164 224 144 -58 138 -155 -126 -73 -94 -118 -135 98 -79 98 70 45 18 44 37 hvcurveto
          -153 -15 -64 -95 -134 hhcurveto
          -41 -34 7 16 -37 hvcurveto
          endchar
        </CharString>
        <CharString name="notequal">
          399 callgsubr
          484 410 rmoveto
          55 -132 vlineto
          40 90 rlineto
          -51 hlineto
          -40 -90 rlineto
          -241 -55 217 hlineto
          -61 -139 rlineto
          -156 -56 132 hlineto
          -40 -90 rlineto
          51 hlineto
          40 90 rlineto
          241 56 -217 hlineto
          61 139 rlineto
          endchar
        </CharString>
        <CharString name="ntilde">
          -31 303 callsubr
          79 49 -3 49 hstemhm
          76 61 261 61 hintmask 11101100
          396 686 -9 callgsubr
          -301 -151 rmoveto
          -61 -507 -31 callsubr
          -72 -57 -30 -65 -32 vhcurveto
          endchar
        </CharString>
        <CharString name="numbersign">
          137 0 225 -51 51 224 51 hstemhm
          55 587 hintmask 01110000
          425 225 rmoveto
          -190 hlineto
          47 224 rlineto
          190 hlineto
          170 hmoveto
          51 -101 vlineto
          36 174 rlineto
          -57 hlineto
          -37 -174 rlineto
          -190 hlineto
          37 174 rlineto
          -59 hlineto
          -36 -174 rlineto
          -121 -51 110 hlineto
          -47 -224 rlineto
          -122 -51 111 hlineto
          hintmask 10110000
          -36 -174 rlineto
          57 hlineto
          hintmask 01110000
          37 174 rlineto
          190 hlineto
          hintmask 10110000
          -37 -174 rlineto
          59 hlineto
          hintmask 01110000
          36 174 rlineto
          113 51 -102 hlineto
          47 224 rlineto
          endchar
        </CharString>
        <CharString name="o">
          230 callgsubr
          261 callsubr
          96 callgsubr
          endchar
        </CharString>
        <CharString name="oacute">
          212 callgsubr
          264 562 -14 callgsubr
          -88 -721 -68 callgsubr
          endchar
        </CharString>
        <CharString name="obreve">
          230 callgsubr
          45 48 hstemhm
          45 64 30 387 callsubr
          3 64 hintmask 11111100
          139 712 13 callgsubr
          hintmask 11110010
          87 -256 rmoveto
          125 49 -98 -107 -107 -58 -95 -116 -104 -65 95 107 107 59 98 110 hvcurveto
          -465 vmoveto
          152 86 115 145 145 -81 118 -157 -140 -93 -118 -145 -145 87 -115 146 hvcurveto
          endchar
        </CharString>
        <CharString name="ocircumflex">
          230 callgsubr
          47 346 callsubr
          278 456 rmoveto
          125 49 -98 -107 -107 -58 -95 -116 -104 -65 95 107 107 59 98 110 hvcurveto
          -465 vmoveto
          152 86 115 145 145 -81 118 -157 -140 -93 -118 -145 -145 87 -115 146 hvcurveto
          -26 720 -57 callsubr
          endchar
        </CharString>
        <CharString name="odieresis">
          230 callgsubr
          78 86 hstemhm
          45 64 44 86 98 86 29 64 hintmask 11111010
          153 635 rmoveto
          -24 18 -19 25 24 19 19 24 25 -19 18 -24 -25 -18 -18 -25 vhcurveto
          hintmask 11111110
          24 callsubr
          -59 -644 rmoveto
          hintmask 11111010
          152 86 115 145 145 -81 118 -157 -140 -93 -118 -145 hvcurveto
          hintmask 11111110
          -145 87 -115 146 vhcurveto
          hintmask 11111010
          465 vmoveto
          125 49 -98 -107 -107 -58 -95 -116 -104 -65 95 107 107 59 98 110 hvcurveto
          endchar
        </CharString>
        <CharString name="oe">
          336 -9 58 -54 58 173 56 174 58 hstemhm
          45 64 318 65 297 63 hintmask 10111110
          789 282 rmoveto
          -297 hlineto
          121 11 70 53 78 hhcurveto
          77 61 -49 -102 hvcurveto
          -521 -256 rmoveto
          -104 -55 95 107 107 49 98 110 125 34 -98 -107 -107 -43 -95 -116 hvcurveto
          hintmask 01111110
          547 38 rmoveto
          -24 -36 -57 -10 -41 hhcurveto
          -100 -79 58 115 -10 hvcurveto
          356 hlineto
          3 15 1 24 10 vvcurveto
          151 -68 87 -131 -84 -70 -39 -74 -39 vhcurveto
          69 -34 -63 45 -95 hhcurveto
          -140 -83 -118 -145 hvcurveto
          hintmask 10111110
          -145 77 -115 146 96 64 47 72 34 vhcurveto
          hintmask 01111110
          -74 44 79 -41 93 hhcurveto
          43 56 11 19 38 hvcurveto
          endchar
        </CharString>
        <CharString name="ogonek">
          -160 -227 48 hstem
          105 56 vstem
          295 -209 rmoveto
          50 vlineto
          -11 -15 -27 -9 -22 hhcurveto
          -42 -28 22 43 54 49 42 62 28 hvcurveto
          -26 31 rlineto
          -72 -24 -69 -61 -75 vvcurveto
          -61 43 -47 76 24 27 5 13 20 vhcurveto
          endchar
        </CharString>
        <CharString name="ograve">
          212 callgsubr
          96 callgsubr
          -71 256 86 callsubr
          endchar
        </CharString>
        <CharString name="ohungarumlaut">
          212 callgsubr
          352 562 67 callgsubr
          -25 -721 -68 callgsubr
          endchar
        </CharString>
        <CharString name="omacron">
          230 callgsubr
          100 45 261 callsubr
          415 614 278 callsubr
          126 -623 -68 callgsubr
          endchar
        </CharString>
        <CharString name="one">
          -252 21 -21 hstem
          167 61 vstem
          20 285 callsubr
        </CharString>
        <CharString name="onesuperior">
          -318 392 429 hstem
          114 52 vstem
          10 700 rmoveto
          104 58 rlineto
          -366 52 429 -43 vlineto
          -113 -64 rlineto
          endchar
        </CharString>
        <CharString name="ordfeminine">
          -223 388 49 156 50 134 48 hstem
          0 53 203 51 vstem
          256 593 rmoveto
          -66 vlineto
          -46 -46 -44 -65 -61 -31 32 44 54 47 26 87 vhcurveto
          -156 148 rmoveto
          22 32 48 14 39 hhcurveto
          81 25 -44 -72 hvcurveto
          -18 -81 vlineto
          -104 -71 -47 -84 -78 56 -46 78 50 44 24 34 28 hvcurveto
          -54 51 269 vlineto
          103 -43 61 -113 -42 -49 -13 -18 -29 vhcurveto
          endchar
        </CharString>
        <CharString name="ordmasculine">
          -202 386 48 345 48 hstem
          -10 53 271 54 vstem
          177 386 rmoveto
          124 67 97 123 121 -63 100 -128 -114 -73 -100 -121 -123 68 -97 119 hvcurveto
          393 vmoveto
          102 35 -84 -89 -92 -44 -80 -93 -83 -51 80 92 89 46 84 88 hvcurveto
          endchar
        </CharString>
        <CharString name="oslash">
          3 -9 55 413 55 hstem
          62 61 349 61 vstem
          437 388 rmoveto
          24 -37 11 -49 -51 vvcurveto
          -109 -59 -96 -118 -37 -32 12 20 -27 vhcurveto
          -39 42 rmoveto
          -24 36 -13 46 49 vvcurveto
          109 60 99 112 42 34 -11 -18 26 vhcurveto
          136 84 rmoveto
          -72 hlineto
          -30 -39 rlineto
          25 -36 -45 14 -55 hhcurveto
          -140 -93 -118 -145 -71 21 -64 39 -47 hvcurveto
          -60 -78 rlineto
          71 hlineto
          30 40 rlineto
          -26 36 44 -14 52 hhcurveto
          152 86 115 145 72 -20 66 -40 47 hvcurveto
          endchar
        </CharString>
        <CharString name="otilde">
          230 callgsubr
          80 49 -3 49 hstemhm
          45 64 343 64 hintmask 11101100
          96 callgsubr
          124 230 -9 callgsubr
          endchar
        </CharString>
        <CharString name="p">
          150 callsubr
          457 rmoveto
          -61 -707 194 callgsubr
        </CharString>
        <CharString name="paragraph">
          -27 -148 822 hstem
          216 60 121 60 vstem
          276 674 rmoveto
          -61 hlineto
          -121 -64 -85 -82 -87 63 -73 123 hvcurveto
          -495 60 vlineto
          121 hmoveto
          60 822 -60 hlineto
          endchar
        </CharString>
        <CharString name="parenleft">
          -257 -196 903 hstem
          80 65 vstem
          310 -196 rmoveto
          -108 142 -57 155 156 vvcurveto
          162 51 141 107 147 vhcurveto
          -71 hlineto
          -91 -120 -61 -163 -162 vvcurveto
          -159 54 -164 106 -135 vhcurveto
          endchar
        </CharString>
        <CharString name="parenright">
          -257 -196 903 hstem
          158 65 vstem
          71 707 rmoveto
          -71 hlineto
          107 -147 51 -141 -162 vvcurveto
          -156 -57 -155 -108 -142 vhcurveto
          70 hlineto
          106 135 54 164 159 vvcurveto
          162 -61 163 -91 120 vhcurveto
          endchar
        </CharString>
        <CharString name="partialdiff">
          -54 -8 58 312 56 hstem
          40 64 296 62 vstem
          241 50 rmoveto
          -86 -51 69 87 97 59 59 82 68 53 -36 -48 34 hvcurveto
          -120 -2 -47 -108 -110 hhcurveto
          -89 624 rmoveto
          87 -51 121 -128 32 -140 rrcurveto
          41 -37 -50 22 -57 hhcurveto
          -102 -106 -75 -137 -108 66 -106 127 154 75 128 166 162 -125 167 -97 59 hvcurveto
          endchar
        </CharString>
        <CharString name="percent">
          254 372 callgsubr
          50 438 callsubr
          114 438 callsubr
          hintmask 0111111110000000
          200 340 callgsubr
          hintmask 1011111110000000
          -83 67 -67 83 82 68 67 83 82 -68 68 -82 vhcurveto
          hintmask 0111111110000000
          -83 -67 -68 -82 hvcurveto
          hintmask 1011111110000000
          -414 367 rmoveto
          13 callsubr
          414 -367 rmoveto
          52 42 42 52 52 42 -42 -52 -52 -42 -42 -52 -52 -42 42 52 vhcurveto
          endchar
        </CharString>
        <CharString name="period">
          -418 -8 102 hstem
          20 102 vstem
          20 43 rmoveto
          54 callgsubr
          endchar
        </CharString>
        <CharString name="periodcentered">
          -338 286 102 hstem
          60 102 vstem
          60 337 rmoveto
          54 callgsubr
          endchar
        </CharString>
        <CharString name="perthousand">
          599 372 callgsubr
          45 438 callsubr
          114 438 callsubr
          75 438 callsubr
          hintmask 0110000100000000
          195 340 callgsubr
          hintmask 1010000110000000
          -83 67 -67 83 82 68 67 83 82 -68 68 -82 vhcurveto
          hintmask 0110000100000000
          -83 -67 -68 -82 hvcurveto
          hintmask 1011111111100000
          -414 367 rmoveto
          13 callsubr
          414 -367 rmoveto
          52 42 42 52 52 42 -42 -52 -52 -42 -42 -52 -52 -42 42 52 vhcurveto
          319 hmoveto
          13 callsubr
          endchar
        </CharString>
        <CharString name="pi">
          16 0 56 399 52 hstem
          125 61 209 61 vstem
          556 507 rmoveto
          -531 -52 100 -304 hlineto
          -77 -23 -18 -61 vhcurveto
          -56 vlineto
          82 63 32 120 hvcurveto
          303 209 328 callgsubr
          100 vlineto
          endchar
        </CharString>
        <CharString name="plus">
          -16 312 56 hstem
          239 57 vstem
          484 368 rmoveto
          -188 192 -57 -192 436 callgsubr
          -192 57 192 188 hlineto
          endchar
        </CharString>
        <CharString name="plusminus">
          -16 31 56 245 56 hstem
          239 57 vstem
          60 31 rmoveto
          409 callsubr
          236 301 rmoveto
          177 -57 -177 436 callgsubr
          -177 57 177 188 56 vlineto
          endchar
        </CharString>
        <CharString name="product">
          20 -184 59 742 57 hstem
          100 62 280 62 vstem
          504 674 rmoveto
          -404 -701 hlineto
          -66 -30 -32 -60 -18 -23 5 7 -14 vhcurveto
          -60 vlineto
          -6 14 29 -5 18 hhcurveto
          77 69 36 131 hvcurveto
          634 280 -797 62 vlineto
          endchar
        </CharString>
        <CharString name="q">
          -5 -8 58 407 58 hstem
          45 64 309 61 vstem
          265 50 rmoveto
          -86 -70 69 141 117 64 80 86 73 86 -44 -162 -158 -95 -43 -58 hvcurveto
          153 457 rmoveto
          -74 vlineto
          48 -31 -50 34 -76 hhcurveto
          -142 -74 -121 -135 -157 90 -110 128 69 52 33 51 34 hvcurveto
          -276 61 707 vlineto
          endchar
        </CharString>
        <CharString name="question">
          -110 -8 101 103 170 258 58 -44 -20 hstemhm
          123 102 -81 61 141 64 hintmask 11100110
          40 573 rmoveto
          37 58 52 14 52 hhcurveto
          100 44 -55 -69 -93 -82 -41 -120 hvcurveto
          -170 61 116 vlineto
          103 10 102 55 122 vvcurveto
          118 -83 65 -126 -64 -64 -22 -22 -33 vhcurveto
          hintmask 11011010
          83 -596 rmoveto
          53 callsubr
          endchar
        </CharString>
        <CharString name="questiondown">
          -110 -173 58 258 170 103 101 hstemhm
          40 64 121 102 -82 61 hintmask 11010100
          410 -64 rmoveto
          -37 -58 -52 -14 -52 hhcurveto
          -100 -44 55 69 93 82 41 120 hvcurveto
          170 -61 -116 vlineto
          -103 -10 -102 -55 -122 vvcurveto
          -118 83 -65 126 64 64 22 22 33 vhcurveto
          hintmask 11111000
          -83 596 rmoveto
          29 -21 21 -29 -29 -23 -21 -29 -28 23 -23 29 29 21 23 28 vhcurveto
          endchar
        </CharString>
        <CharString name="quotedbl">
          -289 451 230 hstem
          45 57 67 418 callsubr
          124 -230 rmoveto
          57 230 -57 hlineto
          endchar
        </CharString>
        <CharString name="quotedblbase">
          -271 -122 214 hstem
          4 292 vstem
          136 -122 138 callgsubr
          -211 -214 138 callgsubr
          endchar
        </CharString>
        <CharString name="quotedblleft">
          -270 435 callsubr
          8 292 vstem
          168 695 324 callgsubr
          211 214 324 callgsubr
          endchar
        </CharString>
        <CharString name="quotedblright">
          -271 435 callsubr
          8 292 vstem
          140 481 138 callgsubr
          -211 -214 138 callgsubr
          endchar
        </CharString>
        <CharString name="quoteleft">
          -403 435 callsubr
          7 160 vstem
          167 695 324 callgsubr
          endchar
        </CharString>
        <CharString name="quoteright">
          -402 435 callsubr
          8 160 vstem
          8 481 138 callgsubr
          endchar
        </CharString>
        <CharString name="quotesinglbase">
          -402 -122 214 hstem
          4 160 vstem
          4 -122 138 callgsubr
          endchar
        </CharString>
        <CharString name="quotesingle">
          -413 451 230 hstem
          45 418 callsubr
          endchar
        </CharString>
        <CharString name="r">
          -246 21 -21 455 58 hstem
          76 61 vstem
          137 507 19 callsubr
        </CharString>
        <CharString name="racute">
          -246 21 -21 455 58 49 150 hstem
          76 61 vstem
          353 712 95 callgsubr
          -88 -55 19 callsubr
        </CharString>
        <CharString name="radical">
          176 355 56 hstem
          34 748 vstem
          202 411 rmoveto
          -157 hlineto
          -11 -56 rlineto
          121 hlineto
          204 -555 rlineto
          96 hlineto
          327 1095 rlineto
          -64 hlineto
          -77 -255 -85 -278 -78 -256 rrcurveto
          -43 -142 -29 -118 0 vvcurveto
          0 -40 116 -50 137 vhcurveto
          endchar
        </CharString>
        <CharString name="rcaron">
          -246 21 -21 455 58 48 150 hstem
          76 61 vstem
          231 561 -41 callsubr
          -31 -54 19 callsubr
        </CharString>
        <CharString name="registered">
          -122 371 43 144 33 65 34 55 43 hstem
          10 45 100 41 56 41 92 43 vstem
          196 656 rmoveto
          23 hlineto
          21 12 -8 -24 -21 -9 -12 -21 hvcurveto
          -26 hlineto
          -41 99 rmoveto
          -208 41 76 21 vlineto
          45 -76 rlineto
          48 hlineto
          -52 84 rlineto
          23 10 12 21 27 vvcurveto
          41 -24 25 -55 vhcurveto
          6 -276 rmoveto
          -100 -65 67 98 98 65 68 100 99 66 -68 -98 -98 -66 -67 -99 hvcurveto
          -1 374 rmoveto
          -121 -88 -88 -121 -121 88 -87 121 121 88 87 121 121 -88 88 -121 hvcurveto
          endchar
        </CharString>
        <CharString name="ring">
          -160 625 45 107 45 hstem
          101 45 107 45 vstem
          101 723 163 callsubr
          endchar
        </CharString>
        <CharString name="s">
          352 callgsubr
          hstem
          57 62 189 63 vstem
          341 489 58 callsubr
        </CharString>
        <CharString name="sacute">
          352 callgsubr
          50 150 hstem
          57 62 189 63 vstem
          190 562 -14 callgsubr
          49 -223 58 callsubr
        </CharString>
        <CharString name="scaron">
          352 callgsubr
          50 150 hstem
          57 62 189 63 vstem
          341 489 -78 callgsubr
          -81 134 -41 callsubr
          endchar
        </CharString>
        <CharString name="scircumflex">
          352 callgsubr
          50 150 hstem
          57 62 189 63 vstem
          341 489 -78 callgsubr
          -153 284 -57 callsubr
          endchar
        </CharString>
        <CharString name="section">
          -71 -207 60 766 61 hstem
          50 64 264 61 vstem
          112 302 rmoveto
          29 10 28 19 19 vhcurveto
          37 -18 42 -14 39 -17 rrcurveto
          63 -28 56 -32 -65 vvcurveto
          -34 -11 -29 -19 -20 vhcurveto
          -28 16 -30 13 -30 13 rrcurveto
          -76 33 -72 30 76 vvcurveto
          288 348 rmoveto
          21 -39 -54 9 -47 hhcurveto
          -110 -100 -51 -119 -44 16 -30 24 -23 hvcurveto
          -25 -29 -15 -37 -47 vvcurveto
          -126 115 -35 94 -42 vhcurveto
          63 -28 54 -31 -65 vvcurveto
          -79 -57 -41 -93 -67 -68 23 30 -39 vhcurveto
          -69 vlineto
          -29 48 66 -15 63 hhcurveto
          116 94 59 122 49 -17 35 -26 27 hvcurveto
          27 29 16 40 50 vvcurveto
          114 -93 40 -86 37 vhcurveto
          -76 33 -70 10 76 vvcurveto
          69 57 36 90 50 58 -17 -21 31 vhcurveto
          endchar
        </CharString>
        <CharString name="semicolon">
          -353 318 101 hstem
          69 102 vstem
          69 368 rmoveto
          53 callsubr
          -77 -490 402 callsubr
        </CharString>
        <CharString name="seven">
          -117 21 -21 599 55 hstem
          10 423 vstem
          10 254 callgsubr
        </CharString>
        <CharString name="six">
          -37 -8 57 314 58 196 58 hstem
          57 60 303 64 vstem
          285 49 rmoveto
          -94 -71 77 158 -3 hvcurveto
          43 38 64 36 70 hhcurveto
          76 55 -55 -93 -97 -51 -69 -84 hvcurveto
          154 611 rmoveto
          10 -28 -25 5 -36 hhcurveto
          -195 -98 -176 -204 -173 78 -130 150 118 81 87 134 123 -71 85 -123 -60 -67 -27 -46 -43 hvcurveto
          141 14 74 128 141 hhcurveto
          34 30 -7 -12 26 hvcurveto
          endchar
        </CharString>
        <CharString name="slash">
          -173 -102 809 hstem
          -11 428 vstem
          -11 -102 rmoveto
          61 hlineto
          367 809 rlineto
          -62 hlineto
          endchar
        </CharString>
        <CharString name="space">
          -318 endchar
        </CharString>
        <CharString name="sterling">
          -43 0 55 244 51 250 59 -24 -20 hstemhm
          154 60 -43 60 hintmask 11010100
          147 55 rmoveto
          41 25 43 41 129 vvcurveto
          16 -1 16 -1 17 vhcurveto
          178 51 hlineto
          hintmask 11101000
          -184 hlineto
          -4 39 -5 39 35 vvcurveto
          95 50 42 87 38 26 -7 -20 36 vhcurveto
          hintmask 11010100
          62 vlineto
          hintmask 11101000
          15 -30 -37 9 -34 hhcurveto
          -121 -75 -70 -132 -31 5 -38 4 -38 hvcurveto
          hintmask 11010100
          -91 -51 96 hlineto
          2 -18 1 -16 -16 vvcurveto
          -113 -23 -46 -83 -38 vhcurveto
          -52 412 55 vlineto
          endchar
        </CharString>
        <CharString name="summation">
          -130 -200 57 760 57 hstem
          30 445 vstem
          475 674 rmoveto
          -445 -57 hlineto
          188 -373 -188 -387 rlineto
          -57 445 57 -373 vlineto
          188 387 -188 373 rlineto
          373 hlineto
          endchar
        </CharString>
        <CharString name="t">
          -196 -5 58 402 52 -52 179 hstemhm
          108 62 hintmask 11010000
          170 455 rmoveto
          357 callsubr
          hintmask 10110000
          127 -62 vlineto
          hintmask 11010000
          -127 -83 -52 83 -312 23 callsubr
        </CharString>
        <CharString name="tbar">
          -196 -5 58 219 46 137 52 -52 179 hstemhm
          108 62 hintmask 11101000
          170 272 rmoveto
          146 46 -146 137 357 callsubr
          hintmask 11011000
          127 -62 vlineto
          hintmask 11101000
          -127 -83 -52 83 -137 -83 -46 83 -129 23 callsubr
        </CharString>
        <CharString name="tcaron">
          -196 -5 58 402 52 -52 179 -72 72 -72 187 hstemhm
          108 62 hintmask 11001100
          395 749 rmoveto
          -76 hlineto
          hintmask 11010100
          -88 -187 rlineto
          54 hlineto
          -115 -107 rmoveto
          357 callsubr
          hintmask 10100100
          127 -62 vlineto
          hintmask 11010100
          -127 -83 -52 83 -312 23 callsubr
        </CharString>
        <CharString name="thorn">
          150 callsubr
          657 rmoveto
          -61 -907 194 callgsubr
        </CharString>
        <CharString name="three">
          -99 -6 58 251 55 244 58 hstemhm
          322 64 -43 63 hintmask 11101000
          58 39 callgsubr
        </CharString>
        <CharString name="threesuperior">
          -242 388 48 150 46 145 48 hstemhm
          215 54 -40 54 hintmask 11101000
          101 632 rmoveto
          -46 27 vlineto
          62 39 -29 -49 -45 -32 -27 -52 -36 -37 7 20 -37 hvcurveto
          -51 vlineto
          -15 31 45 -9 34 hhcurveto
          91 47 51 68 57 -44 43 -48 4 hvcurveto
          hintmask 11110000
          47 12 31 34 54 vvcurveto
          60 -41 54 -92 -34 -37 -14 -12 -19 vhcurveto
          -53 vlineto
          18 28 35 13 28 hhcurveto
          47 31 -21 -48 -49 -41 -27 -46 hvcurveto
          endchar
        </CharString>
        <CharString name="tilde">
          -160 668 49 -3 49 hstemhm
          50 322 hintmask 10100000
          330 760 147 callgsubr
          hintmask 01100000
          -40 callgsubr
          hintmask 10100000
          198 callsubr
        </CharString>
        <CharString name="trademark">
          118 611 63 -46 46 hstemhm
          88 51 hintmask 01100000
          255 331 rmoveto
          53 hlineto
          9 167 rlineto
          5 86 3 27 0 vvcurveto
          0 7 -21 32 -92 vhcurveto
          56 -159 rlineto
          57 hlineto
          60 159 rlineto
          hintmask 10100000
          32 87 9 26 0 vvcurveto
          0 0 -34 5 -79 vhcurveto
          11 -167 rlineto
          52 hlineto
          -23 343 rlineto
          -74 hlineto
          -67 -180 rlineto
          -18 -49 -16 -49 0 vvcurveto
          0 -13 46 -18 52 vhcurveto
          hintmask 01100000
          -63 180 rlineto
          -72 hlineto
          -282 -46 rmoveto
          88 -298 51 298 85 46 -224 hlineto
          endchar
        </CharString>
        <CharString name="two">
          -68 0 55 547 58 hstem
          360 64 vstem
          127 102 callgsubr
        </CharString>
        <CharString name="twosuperior">
          -195 392 46 339 48 hstem
          255 55 vstem
          50 392 rmoveto
          275 46 -197 hlineto
          102 79 80 98 81 vvcurveto
          87 -69 42 -69 -42 -37 -16 -17 -28 vhcurveto
          -59 vlineto
          25 31 39 19 39 hhcurveto
          44 37 -24 -59 -84 -104 -100 -101 -77 hvcurveto
          endchar
        </CharString>
        <CharString name="u">
          282 callsubr
          hstemhm
          70 61 261 61 hintmask 10110000
          392 507 rmoveto
          -282 vlineto
          -61 callsubr
          hintmask 01110000
          218 callsubr
        </CharString>
        <CharString name="uacute">
          197 callgsubr
          424 712 95 callgsubr
          96 -55 rmoveto
          -282 vlineto
          -61 callsubr
          hintmask 01111000
          218 callsubr
        </CharString>
        <CharString name="ubreve">
          282 callsubr
          559 48 hstemhm
          70 61 -19 387 callsubr
          -30 61 hintmask 10101100
          370 712 12 callsubr
          hintmask 10110010
          -30 -205 rmoveto
          -282 vlineto
          -61 callsubr
          hintmask 01110010
          218 callsubr
        </CharString>
        <CharString name="ucircumflex">
          197 callgsubr
          263 669 rmoveto
          -22 callsubr
          215 -55 rmoveto
          -282 vlineto
          -61 callsubr
          hintmask 01111000
          218 callsubr
        </CharString>
        <CharString name="udieresis">
          282 callsubr
          592 86 hstemhm
          70 61 0 86 98 86 -9 61 hintmask 10101100
          358 592 -27 callgsubr
          hintmask 10110010
          218 -85 rmoveto
          -282 vlineto
          -61 callsubr
          hintmask 01110010
          218 callsubr
        </CharString>
        <CharString name="ugrave">
          282 callsubr
          561 150 hstemhm
          70 61 261 61 hintmask 10111000
          292 561 126 callgsubr
          155 -54 rmoveto
          -282 vlineto
          -61 callsubr
          hintmask 01111000
          218 callsubr
        </CharString>
        <CharString name="uhungarumlaut">
          197 callgsubr
          362 562 rmoveto
          135 150 rlineto
          -81 hlineto
          -103 -150 rlineto
          32 150 rmoveto
          -81 hlineto
          -99 -150 rlineto
          49 hlineto
          178 -337 rmoveto
          -61 callsubr
          hintmask 01111000
          -91 454 callgsubr
          vlineto
          endchar
        </CharString>
        <CharString name="umacron">
          282 callsubr
          614 45 hstemhm
          70 61 261 61 hintmask 10111000
          393 659 297 callgsubr
          -1 -107 rmoveto
          -282 vlineto
          -61 callsubr
          hintmask 01111000
          218 callsubr
        </CharString>
        <CharString name="underscore">
          5 -82 55 hstem
          30 505 vstem
          30 -82 rmoveto
          505 55 -505 hlineto
          endchar
        </CharString>
        <CharString name="uni00A0">
          -318 endchar
        </CharString>
        <CharString name="uni00AD">
          267 callgsubr
        </CharString>
        <CharString name="uni00B5">
          -25 -7 59 -31 -21 hstemhm
          76 61 261 61 hintmask 10110000
          398 507 rmoveto
          -282 vlineto
          -102 -50 -71 -80 -65 -66 40 80 vhcurveto
          335 -61 -686 61 219 vlineto
          -30 28 41 -17 51 hhcurveto
          67 49 27 61 25 hvcurveto
          hintmask 01110000
          -81 61 507 vlineto
          endchar
        </CharString>
        <CharString name="uni0122">
          101 316 callsubr
          43 225 callsubr
          hstemhm
          50 64 415 62 hintmask 11101110
          249 -238 -15 callsubr
          254 422 48 callgsubr
          hvcurveto
          hintmask 11110110
          145 callgsubr
          vhcurveto
          hintmask 11101110
          69 vlineto
          hintmask 11110110
          8 callgsubr
        </CharString>
        <CharString name="uni0123">
          200 callgsubr
          46 187 hstem
          45 64 299 61 vstem
          429 748 rmoveto
          -54 hlineto
          -110 -187 rlineto
          76 hlineto
          -84 -491 -81 callsubr
        </CharString>
        <CharString name="uni0136">
          -11 248 callgsubr
          389 callgsubr
          80 209 callsubr
          79 -912 -15 callsubr
          -8 383 273 callgsubr
        </CharString>
        <CharString name="uni0137">
          -98 248 callgsubr
          hstem
          76 61 vstem
          137 707 rmoveto
          -61 -707 61 hlineto
          -28 -238 -15 callsubr
          29 317 161 callgsubr
        </CharString>
        <CharString name="uni013B">
          -86 316 callsubr
          51 57 389 callgsubr
          139 -238 -15 callsubr
          -85 108 170 callsubr
        </CharString>
        <CharString name="uni013C">
          -339 248 callgsubr
          260 callgsubr
          707 -61 hlineto
          -94 -945 286 callgsubr
        </CharString>
        <CharString name="uni0145">
          107 248 callgsubr
          601 73 351 callsubr
          220 -238 -15 callsubr
          -228 51 rmoveto
          -51 callsubr
          endchar
        </CharString>
        <CharString name="uni0146">
          -31 248 callgsubr
          456 59 226 callgsubr
          149 -238 -15 callsubr
          -100 558 rmoveto
          -61 -507 -31 callsubr
          -72 -57 -30 -65 -32 vhcurveto
          endchar
        </CharString>
        <CharString name="uni0156">
          -29 248 callgsubr
          274 55 290 55 hstem
          80 62 263 62 vstem
          155 -238 -15 callsubr
          -101 380 rmoveto
          290 97 vlineto
          114 52 -51 -96 -77 -51 -66 -103 hvcurveto
          76 -44 rmoveto
          91 25 46 71 3 88 rrcurveto
          127 -74 78 -161 vhcurveto
          -152 -674 62 274 102 hlineto
          7 6 0 6 hhcurveto
          169 -274 rlineto
          74 hlineto
          endchar
        </CharString>
        <CharString name="uni0157">
          -246 248 callgsubr
          455 58 hstem
          76 61 vstem
          -20 -238 -15 callsubr
          69 558 19 callsubr
        </CharString>
        <CharString name="uni015E">
          -33 -248 49 192 60 566 61 hstem
          73 64 113 56 93 63 vstem
          423 650 -85 callgsubr
          -117 -702 30 callsubr
        </CharString>
        <CharString name="uni015F">
          -154 -248 49 193 55 406 57 hstem
          57 62 96 56 37 63 vstem
          341 489 -78 callgsubr
          -70 -549 30 callsubr
        </CharString>
        <CharString name="uni0162">
          -95 248 callgsubr
          617 57 434 callsubr
          100 -238 -15 callsubr
          262 725 151 callsubr
        </CharString>
        <CharString name="uni0163">
          283 callsubr
          49 -238 -15 callsubr
          33 506 rmoveto
          357 callsubr
          hintmask 11011000
          127 -62 vlineto
          hintmask 11101000
          -127 -83 -52 83 -312 23 callsubr
        </CharString>
        <CharString name="uni0218">
          -33 316 callsubr
          44 60 566 61 hstem
          73 64 262 63 vstem
          423 650 -85 callgsubr
          -283 -819 286 callgsubr
        </CharString>
        <CharString name="uni0219">
          -154 316 callsubr
          45 55 406 57 hstem
          57 62 189 63 vstem
          89 -238 -15 callsubr
          164 540 58 callsubr
        </CharString>
        <CharString name="uni021A">
          -95 248 callgsubr
          617 57 434 callsubr
          103 -238 -15 callsubr
          259 725 151 callsubr
        </CharString>
        <CharString name="uni021B">
          283 callsubr
          113 -238 -15 callsubr
          -31 506 rmoveto
          357 callsubr
          hintmask 11011000
          127 -62 vlineto
          hintmask 11101000
          -127 -83 -52 83 -312 23 callsubr
        </CharString>
        <CharString name="uni0237">
          -344 -194 58 hstem
          80 61 vstem
          -47 -180 42 callgsubr
          endchar
        </CharString>
        <CharString name="uni02BC">
          -399 435 callsubr
          22 160 vstem
          22 481 138 callgsubr
          endchar
        </CharString>
        <CharString name="uni02C9">
          267 callsubr
        </CharString>
        <CharString name="uni0901">
          741 52 105 93 hstem
          -300 62 58 94 55 62 vstem
          -135 741 4 callsubr
          -45 203 -80 callgsubr
          endchar
        </CharString>
        <CharString name="uni0902">
          728 93 hstem
          -180 94 vstem
          -180 774 -80 callgsubr
          endchar
        </CharString>
        <CharString name="uni0902.aMatraI">
          797 93 hstem
          -49 94 vstem
          -49 843 -80 callgsubr
          endchar
        </CharString>
        <CharString name="uni0903">
          -258 111 93 234 93 hstem
          52 94 vstem
          52 484 -80 callgsubr
          -327 vmoveto
          -69 callgsubr
          27 21 19 27 26 -21 21 -27 -69 callsubr
          vhcurveto
          endchar
        </CharString>
        <CharString name="uni0905">
          87 88 callsubr
          225 callgsubr
          hintmask 1110011010000000
          392 634 rmoveto
          356 callgsubr
          vlineto
          hintmask 1111101010000000
          -55 callsubr
          hintmask 1111010110000000
          -18 callsubr
          hintmask 1110010110000000
          105 callgsubr
          120 55 hlineto
          endchar
        </CharString>
        <CharString name="uni0906">
          349 88 callsubr
          225 callgsubr
          200 62 hintmask 1110011011000000
          929 -11 callsubr
          -537 301 callgsubr
          hintmask 1111101011000000
          -55 callsubr
          hintmask 1111010111000000
          -18 callsubr
          hintmask 1110010111000000
          105 callgsubr
          200 -579 97 callsubr
        </CharString>
        <CharString name="uni0907">
          -92 -57 239 callsubr
          369 55 92 55 hstemhm
          70 60 187 62 -3 62 hintmask 01111100
          450 callgsubr
          -508 -55 337 -92 -91 vlineto
          450 callsubr
          hintmask 01111010
          96 -6 27 -33 -45 vvcurveto
          -56 -41 -37 -59 -68 -60 44 58 -23 vhcurveto
          hintmask 10111100
          190 callsubr
          hintmask 01111010
          193 callsubr
        </CharString>
        <CharString name="uni0908">
          -92 -57 239 callsubr
          369 55 92 55 169 55 hstemhm
          70 60 134 62 -9 62 -3 62 hintmask 0111110100000000
          450 callgsubr
          vlineto
          hintmask 0111111000000000
          -121 hlineto
          -21 22 -20 34 34 vvcurveto
          48 27 31 47 14 callgsubr
          -91 -45 -65 -64 -40 14 -33 20 -22 hvcurveto
          -318 -55 hlineto
          hintmask 0111110100000000
          337 -92 -91 hlineto
          450 callsubr
          hintmask 0111110010000000
          96 -6 27 -33 -45 vvcurveto
          -56 -41 -37 -59 -68 -60 44 58 -23 vhcurveto
          hintmask 1011110100000000
          190 callsubr
          hintmask 0111110010000000
          193 callsubr
        </CharString>
        <CharString name="uni09080902">
          -52 -57 239 callsubr
          177 53 139 55 92 55 63 93 64 55 hstemhm
          80 60 123 62 2 62 -4 94 -93 62 hintmask 0111111101000000
          389 432 rmoveto
          147 139 55 vlineto
          hintmask 0111111110100000
          -147 hlineto
          -28 23 -28 45 51 vvcurveto
          58 38 43 50 14 callgsubr
          -91 -59 -68 -85 -52 26 -45 24 -25 hvcurveto
          -333 -55 hlineto
          hintmask 0111111101000000
          347 -92 -98 hlineto
          -88 -63 -46 -83 -73 383 callsubr
          hintmask 0111111100010000
          83 7 rlineto
          54 33 -31 -50 -56 -41 -40 -59 -68 -60 44 58 -23 hvcurveto
          hintmask 1011111101000000
          190 callsubr
          hintmask 0111111100010000
          123 vlineto
          -36 34 55 -21 57 hhcurveto
          93 69 66 84 76 -46 58 -93 hvcurveto
          -83 -6 rlineto
          -50 1 -36 30 42 vvcurveto
          52 48 20 45 vhcurveto
          hintmask 0111111100100000
          198 358 rmoveto
          -107 callgsubr
          endchar
        </CharString>
        <CharString name="uni0909">
          -141 22 53 242 55 207 55 hstemhm
          284 62 -29 62 hintmask 11101000
          439 -11 callsubr
          -459 -55 hlineto
          hintmask 11110000
          310 callgsubr
          hintmask 11101000
          221 callsubr
          95 -75 50 -55 5 hvcurveto
          hintmask 11110000
          400 callgsubr
          131 hlineto
          endchar
        </CharString>
</ttFont>
